<svg xmlns="http://www.w3.org/2000/svg" xmlns:xlink="http://www.w3.org/1999/xlink" viewBox="0 0 4800 2700"><defs><style>.cls-1{fill:none;}.cls-2{fill:#8d5afe;}.cls-27,.cls-3{fill:#4d1e97;}.cls-4{clip-path:url(#clip-path);}.cls-5{fill:#f6c01c;}.cls-6{fill:#ffbe98;}.cls-7{fill:#ffd6be;}.cls-8{fill:#f76f6b;}.cls-9{fill:#b2b2b2;}.cls-10{fill:#db5858;}.cls-11{fill:#834d03;}.cls-12{fill:#633805;}.cls-13{fill:#4c2903;}.cls-14{fill:#703e03;}.cls-15{fill:#d37809;}.cls-16{fill:#fff8f1;}.cls-17{fill:#c7c8c0;}.cls-18{fill:#a68bfa;}.cls-19{fill:#773ceb;}.cls-20{fill:#ffdbb2;}.cls-21,.cls-26,.cls-29,.cls-30{fill:#ffeff0;}.cls-22{fill:#ffccb3;}.cls-23{isolation:isolate;}.cls-24{fill:#1f398e;}.cls-25{fill:#edf4ff;}.cls-26{font-size:65.84px;font-family:OpenSans-SemiBold, Open Sans;font-weight:600;}.cls-27{font-size:180.38px;}.cls-27,.cls-29,.cls-30{font-family:OpenSans-Bold, Open Sans;font-weight:700;}.cls-28{font-size:104.63px;}.cls-29{font-size:146.08px;}.cls-30{font-size:277.96px;}.cls-31{fill:#ed9f8c;}</style><clipPath id="clip-path"><rect class="cls-1" width="4800" height="2700"/></clipPath></defs><g id="Background"><rect class="cls-2" width="4800" height="2700"/><polygon class="cls-3" points="4800 1005.7 4800 2700 1865.39 2700 4800 1005.7"/></g><g id="Layer_5" data-name="Layer 5"><g class="cls-4"><path class="cls-5" d="M4078.43,603.41c-97.62,45.17-171.37,159.68-196.67,266.85-30.44,52.42-42.06,116.34-59,173.79-8.14,27.75-18,55.93-24.68,83.62-31,12.74-61.14,48.37-90.62,69.35-46.53,46.31-53.07,91.49-85.57,138.1-6.39,11.45-116.19,142.8-118.56,154.62-3,11.08,89.2,80.71,107.61,51.32,1.5-3.23,22.46-14.6,24.49-17,7.71-8.13,16-16,24.94-23.87,62.5-58.56,153.7-118.17,181.17-141.38,97.24-82.12,131.67-138.9,143.87-168.54,57.54-72.27,81.3-151.13,135.88-233.34-22.08,1.7-44.09-4.65-65.17-13.46Z"/><path class="cls-6" d="M3359.12,862.37s-83.95,305.57-72.93,437.76-77.11,374.55-77.11,374.55L3538,1601.55l-9.42-543.78Z"/><path class="cls-7" d="M3671.27,2921.36c3.53,16.39,13.05,31.52,14.75,48.15a55.18,55.18,0,0,1-25.78,51.57c-14.86,9-31.74,10.2-49.14,9.56-15.07-.35-30.39-1.74-45.19-.53-20.78,2-41.1,9.34-61.86,9.22-13-.1-28-4.86-32.1-17.36-4.86-14,7.44-27.77,17.38-38.84a205.4,205.4,0,0,0,51.39-118.62c1.67-18.94.76-37.9-.16-56.87-1.62-31.74-3.51-63.65-5.11-95.61-3-56.63-5.8-113.07-8.81-169.64-.69-11.9-1.15-23.64-1.85-35.59,0-1.82-.23-4-.23-5.73-1.39-27-5.1-54.31-6.75-81.58-.24-5.2.34-12.2,5.54-13.73,4-1.27,7.51,1.35,10.89,3.71,11.36,8.63,23.8,17.55,37.53,19.72,16.34,2.43,29,5.95,43.64,15.07,26.9,17,52,39.28,64.48,68.44,8.46,19.53,10.91,41.1,12.6,62.14,7.94,90.69,7.68,183.15-13.39,271.58C3673.15,2871,3665.45,2896.67,3671.27,2921.36Z"/><path class="cls-6" d="M3671.27,2921.36c3.53,16.39,13.05,31.52,14.75,48.15a55.18,55.18,0,0,1-25.78,51.57c-14.86,9-31.74,10.2-49.14,9.56,48.32-127.72,33.9-270.13,6.17-404.06-5.95-29.38-13.88-60.6-36.1-81-16.8-15.43-40.11-23.36-56.38-38.78,0-1.82-.23-4-.23-5.73-1.39-27-5.1-54.31-6.75-81.58-.24-5.2.34-12.2,5.54-13.73,4-1.27,7.51,1.35,10.89,3.71,11.36,8.63,23.8,17.55,37.53,19.72,16.34,2.43,29,5.95,43.64,15.07,26.89,17,52,39.28,64.48,68.44,8.45,19.53,10.91,41.1,12.6,62.14,7.94,90.69,7.68,183.15-13.39,271.58C3673.15,2871,3665.45,2896.67,3671.27,2921.36Z"/><path class="cls-7" d="M3765.69,3024a124.89,124.89,0,0,0-.92,19.71c-.11,18.45,4,39-2.42,56.36a97.57,97.57,0,0,1-18.11,29.75,83.59,83.59,0,0,1-8.11,8.51,105.28,105.28,0,0,1-86.13,26.21c-25.79-4-49.95-26.54-46.67-52.23,1.37-10.12,6.6-19.18,11.34-28.25,19.18-35.19,35-73.53,43.82-112.69,9.09-39.67,10.14-83,11.9-123.54.3-5.71.34-11.43.64-16.88a1421.62,1421.62,0,0,0-13-244.21c-1.74-12.47-3.74-24.69-5.47-37.17-5.95-39.51-11.9-78.77-12.24-118.5,8.31,0,16,6.58,23.8,6.39s16.69-8.73,23.47-12.58c16.41-9.52,33.86-17.46,51.06-25.39a405.49,405.49,0,0,0,64.65-38.56c2.34-1.81,5-3.61,7.55-2.8,4.15.79,5.14,5.95,5.64,10.16,4.74,72.74-1.43,146.21,9.54,218.2,4.5,28.84,11.58,57.2,14.78,86.3,10.31,92.78-19.34,184.8-52.09,272.12C3779.33,2970.88,3769.22,2996.78,3765.69,3024Z"/><path class="cls-6" d="M3765.69,3024a124.89,124.89,0,0,0-.92,19.71c-.11,18.45,4,39-2.42,56.36a97.57,97.57,0,0,1-18.11,29.75,1040.78,1040.78,0,0,1,14.42-188.44c11.35-68.24,29.16-135.13,37.4-203.9s5.55-140.2-22.1-203.48c-3.85-8.61-9.5-18-18.85-18.57-6.48-.55-12.24,3.55-17.71,7.42-18,12.1-57.33,31.32-84.82,26.74-5.95-39.51-11.9-78.77-12.24-118.5,8.31,0,16,6.58,23.8,6.39s16.69-8.73,23.47-12.58c16.41-9.52,33.86-17.46,51.06-25.39a405.49,405.49,0,0,0,64.65-38.56c2.34-1.81,5-3.61,7.55-2.8,4.15.79,5.14,5.95,5.64,10.16,4.74,72.74-1.43,146.21,9.54,218.2,4.5,28.84,11.58,57.2,14.78,86.3,10.31,92.78-19.34,184.8-52.09,272.12C3779.33,2970.88,3769.22,2996.78,3765.69,3024Z"/><path class="cls-8" d="M4054.69,2405.38c-64.91-47.47-114.16,0-114.16,0-25.51,69.43-61.32,102.06-97,115-65.33,23.81-130.22-17.86-130.22-17.86-1.13,1-2.24,1.87-3.38,2.79-44.92,36.78-92.62,57.86-138.37,66.91-84.27,16.57-161.71-7.78-201.79-50.71a116.13,116.13,0,0,1-15.62-20.93c-41.65-71.54-92.86-77.22-135.32-74.9-53,2.67-92.11,17.71-81.79-67.66,0-.05,0-.08,0-.13.05-.4.1-.8.13-1.19.06-.54.12-1.09.19-1.62,1.28-12,1.31-21.74.39-29.6-.19-1.57-.39-3.05-.66-4.48a54.31,54.31,0,0,0-1.36-5.88c-.16-.61-.34-1.19-.55-1.77-10.81-32.49-45.26-13.27-45.26-13.27s0-.05,0-.08a.17.17,0,0,1,0-.16l1.38-4.08c58.2-172.68,130.21-394.57,189.3-578.36q7.46-23.23,14.6-47.36c0-.09,0-.12,0-.07,56.07-189.13,95.37-405.48,95.37-405.48l392.56,283.85,79.35-7.93C4049.36,1702,4054.69,2405.38,4054.69,2405.38Z"/><path class="cls-8" d="M3505.08,897.54a17,17,0,0,1-2.46,5.1,18.59,18.59,0,0,1-5.18,4.54c-15.63,9.41-34.93,9.92-53.56,7.76-3.73-.5-7.48-1-11.19-1.65a192.65,192.65,0,0,1-27.41-6.52A168.62,168.62,0,0,1,3377.89,894c-6.89-4.08-14.29-8.84-17.12-16.42-2-4.66-1.73-10-1.65-15.24a280.8,280.8,0,0,1,7.76-57.28c5.41-20.34,14.87-42.55,30-57.53a101.23,101.23,0,0,1,52.74-27.06,44.23,44.23,0,0,1,12.32-.35c31.92,2.52,53.12,35.46,58,66C3525.94,822.52,3517.3,863.27,3505.08,897.54Z"/><path class="cls-9" d="M3505.08,897.54a17,17,0,0,1-2.46,5.1,18.59,18.59,0,0,1-5.18,4.54c-15.63,9.41-34.93,9.92-53.56,7.76,2.74-5.67,5.7-11.49,8.21-17.18a308.32,308.32,0,0,0,26.78-94.5c1.83-15.87,2.5-31.92-.89-47.61a81.22,81.22,0,0,0-10-26.32c-1.82-3.05-4-6.13-6-9.2,31.92,2.52,53.12,35.46,58,66C3525.94,822.52,3517.3,863.27,3505.08,897.54Z"/><path class="cls-8" d="M3842.49,1034.73c-.55,1.09-1,2.44-1.58,3.47-26.76,60.54-49.3,123.7-55.27,189.44-4,42.79-5.06,109.42,1.57,151.77a1.26,1.26,0,0,0,.12.65c7.93,51.2,3.31,109.1-108,157.56-4.66,2.11-9.6,4.17-14.66,6.19-7,2.76-34.51,10.42-41.85,11.9-15.87,3.1-32.2,5.54-48.48,7-36.7,3.64-75.2,3.49-110.39-9.11-33.51-12.12-48.7-30.47-52.61-66.35-4.18-38-14.66-171.63-19.72-209.16-1.68-13.41-3.75-27-6.62-40.32a236.36,236.36,0,0,0-8.47-29.76h0a161.9,161.9,0,0,0-18.35-36.81c-1.59-2.29-3.15-4.51-4.84-6.69-10.43-13.73-22.47-26.1-30.85-41.26-21.22-37.69-15.41-85.45,1.31-125.52s43-75.26,63.26-113.55c2-4.16,4.39-8.35,6.23-12.85,6.8-13.63,12.81-27.53,19.12-41.38,13.13-29.63,26.72-59.23,46.14-85.41,29.6-39.89,89.92-63,138.14-65.86,68.14-4,127.31,42.73,179.5,86.51,8.91,7.59,17.85,15.19,26.5,23.34a56.61,56.61,0,0,1,4.66,4.23,351,351,0,0,1,26.33,27c22,25.19,38.78,53.38,42.35,86.16C3881.25,950.9,3860.5,993.89,3842.49,1034.73Z"/><path class="cls-10" d="M3582.36,1193.94s-31.6,46.47-96.33,49.23a120.44,120.44,0,0,1-66.23-17.47c-11.19-6.69-26.78-14.35-43.22-17.44h0a162.59,162.59,0,0,0-18.35-36.82c-1.59-2.28-3.15-4.5-4.84-6.68,14.12,10.59,33,20.81,53.42,21.28a85.92,85.92,0,0,1,34.26,8.69C3465.19,1206.14,3513.53,1219.35,3582.36,1193.94Z"/><path class="cls-11" d="M3669.4,612a70.35,70.35,0,0,0,52.11,12.81c61.59-9.68,78.43-87.28,51.24-135.54-13.57-24-40.09-38.18-67.45-30.33-16.84,4.84-31.14,16.8-40.66,31.52s-14.46,32.06-16.32,49.47a100,100,0,0,0-.26,21.25c.73,7.1,3.71,13.55,4.64,20.53C3654.37,594.7,3658.33,603.81,3669.4,612Z"/><path class="cls-12" d="M3664.9,599.15a55.33,55.33,0,0,0,52.54-9.53,62.69,62.69,0,0,0,22.22-49.15,72.46,72.46,0,0,0-22.06-49.75c-6.28-6.13-13.88-11.33-22.61-12.64-12.54-1.86-24.89,4.71-34.46,13-16.94,14.72-28.54,37.09-25.56,59.35C3637.11,566.52,3648.2,593.19,3664.9,599.15Z"/><path class="cls-7" d="M3720.26,763.25a60.47,60.47,0,0,1-7.6,18.61,131.62,131.62,0,0,1-27,29.53,522.26,522.26,0,0,1-70.76,51.1c-12.32,7.62-24.91,14.42-37.69,21-28.3,14.42-59.75,26.48-90.95,21.24a54.87,54.87,0,0,1-18.09-6c-14.94-8.64-22.53-26.22-22.79-43.24s6-33.72,13.63-49c1.05-2.1,2.36-4.46,3.41-6.54,7.93-13.11,17.85-24.12,26.2-37.23,13.89-21.49,14.17-47.43,24.38-70.24,11.27-24.38,29.88-44.81,49.28-62.91,1.3-1.05,2.36-2.1,3.66-3.15,26.92-24.89,56.56-49.09,72.55-81.76,14.68,30.92,19.83,65.26,28.3,98.54,5,19.4,11,38.8,20.45,56.62,5.95,11.26,14.15,21.5,22,31.73C3716.59,741.23,3723.16,750.14,3720.26,763.25Z"/><path class="cls-6" d="M3720.26,763.25a60.47,60.47,0,0,1-7.6,18.61,131.62,131.62,0,0,1-27,29.53,522.26,522.26,0,0,1-70.76,51.1c0-.77.26-1.31.26-2a346.44,346.44,0,0,0-6.55-144.94c-4.46-16.53-10.23-33-21.24-46.14l-7.06-11.53a83.59,83.59,0,0,1-14.42-31.46c27-24.91,56.61-49.11,72.6-81.78,14.68,30.92,19.83,65.26,28.3,98.54,5,19.4,11,38.8,20.45,56.62,5.95,11.26,14.15,21.5,22,31.73C3716.59,741.23,3723.16,750.14,3720.26,763.25Z"/><path class="cls-7" d="M3637.44,567.41c-3.15,23.6-11,49.59-32.23,59.76a11.91,11.91,0,0,0-5.51,4,11,11,0,0,0-.78,4.21c-.79,12.32-1.84,24.36-2.62,36.67-.27,5-.53,10.5-2.63,15.22a46.59,46.59,0,0,1-11.79,14.14A347.51,347.51,0,0,1,3508,751.89a190.61,190.61,0,0,1-30.92,13.64c-14.42,4.7-29.62,5.76-40.63-3.67-5.77-5-9.7-11.54-13.88-17.85s-8.65-12.58-14.68-16.78c-4.7-3.14-11-6.55-10.73-12A14.35,14.35,0,0,1,3384.81,705c-1-4.18-.26-8.65-2.64-12-4-5.25-12-3.41-18.33-4.72a18.7,18.7,0,0,1-12.85-11,27.21,27.21,0,0,1-1.83-17,118.59,118.59,0,0,1,5-15.47c6-18.35,7.6-39.32-1.31-56.87-4.46-8.65-11.9-15.73-15.47-24.9s-4-19.4-3.67-29.35c.54-26.21-.26-52.95,1.85-79.15,1.56-21.24,17.55-35.13,36.42-42.21,24.12-8.65,50.58-11.78,75.75-6.81s48.74,19.13,63.95,39.68a47.37,47.37,0,0,1,4,5.95c9.92,15.45,16.78,33.28,28.82,47.17a76.26,76.26,0,0,0,43.27,24.12c16.5,2.62,36.41,1.31,46.11,15.19C3639.55,546,3639,557.23,3637.44,567.41Z"/><path class="cls-6" d="M3637.44,567.41c-3.15,23.6-11,49.59-32.23,59.76a11.91,11.91,0,0,0-5.51,4,11,11,0,0,0-.78,4.21c-.79,12.32-1.84,24.36-2.62,36.67-.27,5-.53,10.5-2.63,15.22a46.59,46.59,0,0,1-11.79,14.14A347.51,347.51,0,0,1,3508,751.89a190.61,190.61,0,0,1-30.92,13.64c7.6-11.54,15.19-22.81,21.22-35.13,21.23-43.78,20.18-97.75-3.15-140.22-15.45-28.31-88.33-109.1-27-130a171.07,171.07,0,0,1,47.45-9.16c9.92,15.45,16.78,33.28,28.82,47.17a76.26,76.26,0,0,0,43.27,24.12c16.5,2.62,36.42,1.31,46.12,15.19C3639.55,546,3639,557.23,3637.44,567.41Z"/><path class="cls-11" d="M3662.58,585.84c-5.32,11.1-11.9,21.95-21.82,29.47-.78.8-2,1.35-2.86.84a2.53,2.53,0,0,1-1.09-2.35c-2-18.58,2.46-39.89-5.18-57.52-5.45-13-23.34-16.9-35.33-11.47-12.47,5.72-22,16.63-31,27.26-11.05,13-27.77,4.4-37.31-5.65-5.62-5.68-11.47-11.07-17.32-16.23-13.88-11.9-28.42-22.57-43-33.6a260.06,260.06,0,0,0-22.28-15.1,207.64,207.64,0,0,0-41.48-19.83,252.4,252.4,0,0,0-35.82-9.92c-9-1.69-31.44,1.05-33.72-11.49-4-20.65,3.72-42.27,15.86-59.51,16.37-23.8,40.63-46.3,64.21-63s50.91-27.33,80-28.86c28.29-1.27,57.53,2.68,83.1,15.35a179.38,179.38,0,0,1,19.34,11.05A199.18,199.18,0,0,1,3622.31,354c20.49,17.47,37.89,38.94,49.05,63.47C3695,470,3687.15,535.09,3662.58,585.84Z"/><path class="cls-12" d="M3662.58,585.84c-5.32,11.1-11.9,21.95-21.82,29.47-.78.8-2,1.35-2.86.84a2.53,2.53,0,0,1-1.09-2.35c-2-18.58,2.46-39.89-5.18-57.52-5.45-13-23.34-16.9-35.33-11.47-12.47,5.72-22,16.63-31,27.26-11.05,13-27.77,4.4-37.31-5.65-5.62-5.68-11.47-11.07-17.32-16.23-13.88-11.9-28.42-22.57-43-33.6a260.06,260.06,0,0,0-22.28-15.1,49.57,49.57,0,0,1,6-.61c25.91-1.75,47.79-11,68.48-26.58a165.92,165.92,0,0,0,33.4-33.13c23.35-30.55,37.13-67.74,43.64-105.87A199.18,199.18,0,0,1,3622.31,354c20.49,17.47,37.89,38.94,49.05,63.47C3695,470,3687.15,535.09,3662.58,585.84Z"/><path class="cls-10" d="M3862.65,1540.46l-9.5.93a103.23,103.23,0,0,0-6.57-31c-9.36-24.82-51.69-86.25-54.21-104.9a196.43,196.43,0,0,0-5-25.43,2,2,0,0,0,0-.69c-6.63-42.33-5.56-108.94-1.61-151.73,6-65.72,28.57-128.94,55.28-189.44.54-1,1.08-2.36,1.59-3.49,18-40.82,38.76-83.83,33.51-128.68-3.58-32.73-20.4-61-42.34-86.11a62.06,62.06,0,0,0-18.11-2c-35.7,2-55.74,58-68.21,84.9A975.31,975.31,0,0,0,3660,1292.56c-.16,14.62-2.12,37.1,6.84,61.22,60.92,163.67-282.27,213.18-278.84,211.06,0,0,107.75,70.42,91,205.28-7.61,61.3.78,123.74,28.63,178.85,24.38,48.24,63.73,107.35,127.25,173,137.44,141.89,209,271.76,208.81,398.37,35.71-12.93,71.41-45.46,97-115.05,0,0,49.26-47.47,114.16,0C4054.68,2405.38,4049.37,1702.05,3862.65,1540.46Z"/><path class="cls-10" d="M3295.22,1670.09c-20.16,111.31-91.4,491-158.16,687.85,0,0,0,0,0,0,0-.42.11-.83.14-1.24s.12-1.09.19-1.62c1.28-12,1.31-21.74.39-29.6-.19-1.57-.39-3.05-.66-4.48a54.31,54.31,0,0,0-1.36-5.88c-.16-.61-.34-1.19-.55-1.77-10.75-32.6-45.26-13.35-45.26-13.35a.17.17,0,0,1,0-.16l1.38-4.08c58.2-172.68,130.21-394.57,189.3-578.36Q3288.08,1694.22,3295.22,1670.09Z"/><path class="cls-10" d="M3369.77,2521.48a117.67,117.67,0,0,1-15.61-20.92c-41.65-71.55-92.85-77.23-135.32-74.91,40.23-139.8,109.1-407.16,114.45-612.76C3333.29,1812.89,3392.21,2188,3369.77,2521.48Z"/><path class="cls-10" d="M3709.91,2505.28c-44.93,36.77-92.64,57.86-138.38,66.91l-6-417.56Z"/><path class="cls-13" d="M4023.22,1540.65s-74.07,223.11-79.36,326.28,45,497.34,39.68,555.54-15.88,357.14-15.88,410.05-24.2,288.35-24.2,288.35,93,37,161.77,31.75S4256,3091.77,4256,3091.77s18.52-314.81,18.52-399.46,15.46-500,15.46-500l103.58-539.67Z"/><path class="cls-14" d="M4129,1621.79s7.93,54.67,15.87,104.93,63.49,177.25,66.14,219.57,34.39,296.29,63.49,404.75,68.78,269.84,68.78,269.84,18.52,34.39,18.52,60.85,23.81,343.9,26.45,388.88,13.23,394.17,13.23,394.17,148.14,21.16,185.18,0,79.36-39.68,95.24-121.69L4695.16,3105s10.59-84.66,13.23-116.4,2.65-71.43,0-153.44-47.62-179.89-47.62-179.89-29.1-121.69-29.1-174.6,18.52-179.89,18.52-179.89,7.94-238.09,10.58-328-13.22-201.06-13.22-201.06-26.46-89-37-119.92Z"/><path class="cls-15" d="M4407.09,569c31.58,67.27,106.57,94.58,156.34,146,109.81,113.61,115,266.41,35.72,408.36-72.94,130.81-183.82,182.24-317.41,127.36-174.18-71.58-298.59-240.93-295.17-427.83,3-164.57,105.12-322.4,282.88-272.59Z"/><path class="cls-16" d="M3591.1,3728.49c-165.44-.59-299.34-134.7-299.66-300.15V3078.41h53.84v349.93c-.05,135.8,110,245.92,245.8,246a245.85,245.85,0,0,0,119.49-30.94,755.9,755.9,0,0,0,388.65-660.46V2510h53.85v472.88a809.79,809.79,0,0,1-416.41,707.53A299.41,299.41,0,0,1,3591.1,3728.49Z"/><path class="cls-16" d="M2347.86,3013.62c-165.45-.56-299.36-134.69-299.65-300.15V2363.54h53.84v349.93c0,135.79,110,245.89,245.84,245.9a245.78,245.78,0,0,0,119.46-30.95A755.78,755.78,0,0,0,2856,2268V1795.11h53.86V2268a809.92,809.92,0,0,1-416.41,707.54A299.43,299.43,0,0,1,2347.86,3013.62Z"/><rect class="cls-16" x="2048.21" y="2363.54" width="53.84" height="28.04"/><rect class="cls-16" x="2855.98" y="1795.11" width="53.84" height="28.04"/><path class="cls-17" d="M4087.54,2147.37a222.51,222.51,0,0,0-50.8-39.44l-960-554.28c-50.16-29-116.06-45.55-180.85-45.55-55.59,0-105.18,11.66-143.39,33.73l-608.39,351.26a183,183,0,0,0-16,10.41h-52.91v260.86h0v.14c0,47.89,32.59,94.28,89.41,127l960,554.44c50.12,28.94,116,45.56,180.83,45.56h0c55.59,0,105.16-11.66,143.39-33.73l608.37-351.24c43.26-25,67.41-61.15,68.7-102h.25V2147.37Z"/><path class="cls-17" d="M3305.41,2638.19c-64.8,0-130.71-16.66-180.83-45.56l-960-554.28c-56.82-32.79-89.41-79.12-89.41-127,0-42.35,24.49-79.79,68.94-105.46l608.39-351.26c38.21-22.07,87.8-33.73,143.39-33.73,64.79,0,130.69,16.66,180.85,45.54l960,554.3c56.82,32.79,89.41,79.11,89.41,127,0,42.35-24.51,79.79-69,105.46l-608.37,351.24c-38.23,22.09-87.8,33.75-143.39,33.75Z"/><path class="cls-18" d="M4155.13,2207.58V2677a40.35,40.35,0,0,1-22.91,36.36c-11.57,5.51-24.77,9.68-36.2,18s-19,20.34-28.67,30.29c-28,28.79-69.46,38.23-107.83,49.68-40.52,12.09-75.12,29.33-96.11,67.16-19.78,35.67-39.43,79.83-72.68,105.27-49.14,37.29-118.68,25-178.49,39.71-60.38,15-109.71,57.06-161,92.21-50,34.31-109.7,63.94-168.79,52.88-1.62-.27-3.37-.52-5-.93-68.4-15.2-116.18-81.85-184.43-97.59-58.42-13.47-126.67,11.43-175.66-22.9-39-27.34-49.14-82-84.41-114-55.71-50.76-154.65-29.15-206.35-84-19.78-21-29.33-50.47-50.88-69.86-47.24-42.53-131.5-19.11-176.33-64.33-24.63-24.78-30.29-64.36-56.4-87.63-43.35-38.65-122.24-15.08-160.59-58.7-17.36-19.8-24.51-44.7-37.71-65.29a74.78,74.78,0,0,0-33-29.61c-9-4-18.3-7.53-27.06-12.11a61.5,61.5,0,0,1-19.51-15.35,92.42,92.42,0,0,1-14.82-23.3c-3.9-8.86-4.31-18.42-4.31-28.12V1944.56a10.11,10.11,0,0,1,8.07,2.83,26.1,26.1,0,0,1,5.94,10.41c3.35,8.76,8.33,12.66,16.15,17.63A176.17,176.17,0,0,0,2101,1989c15.22,6.87,25.17,20.59,36.89,31.92,37.48,36.06,80.49,65.41,126.26,90,94.36,51,197.48,83.45,293,131.65,127.22,64.21,238.27,155.47,357.26,233.69s251.72,145.1,394,150.61c2.57.15,5,.15,7.54.15,161.26,3.89,314-70.54,454.57-150.37,1.48-.81,2.83-1.62,4.31-2.41,71.33-40.66,141.87-83.28,208.21-131.79q35.1-25.65,68.22-53.3c9.31-7.81,18.33-15.62,27.34-23.7,16.43-14.8,35.27-27.46,49.53-44.55,11.85-14.27,10.41-31.36,14.14-48.87A194.38,194.38,0,0,1,4155.13,2207.58Z"/><path class="cls-19" d="M4142.34,2137.91c-2.56,12.12-2.68,24.09-6.45,35a42.91,42.91,0,0,1-7.68,13.87c-14.27,17.09-33.11,29.75-49.53,44.56-21,18.73-42.94,36.54-65.28,53.8-150.3-11.87-305.41,29.14-440.72,98.91-76.72,39.56-149.91,89.24-204,156.43a390.93,390.93,0,0,0-35.4,52.48c-8.32,0-16.53.13-24.83-.2a9.3,9.3,0,0,1-1.9-.13c-141.58-5.93-273.66-72.68-392.11-150.49-119-78.22-230-169.48-357.26-233.69-95.56-48.2-198.68-80.63-293-131.64-45.81-24.63-88.7-54-126.26-90-11.72-11.31-21.67-25-36.89-31.92a177.14,177.14,0,0,1-24.76-13.59c-7.8-5-12.8-8.87-16.15-17.64a26.17,26.17,0,0,0-5.94-10.41,10.21,10.21,0,0,0-8.07-2.83v139.72c0,9.56.41,19.12,4.31,28a93,93,0,0,0,14.82,23.28,61.11,61.11,0,0,0,19.51,15.34c8.74,4.58,18,8.08,27.06,12.12a74.76,74.76,0,0,1,33,29.6c13.2,20.59,20.35,45.52,37.71,65.3,38.35,43.72,117.24,20.05,160.59,58.69,26.11,23.28,31.77,62.85,56.4,87.63,44.83,45.22,129.09,21.8,176.33,64.34,21.55,19.38,31.1,48.86,50.88,69.87,51.7,54.9,150.64,33.31,206.35,84,35.27,32,45.37,86.69,84.41,114,49,34.33,117.24,9.43,175.66,22.9,68.25,15.74,116,82.39,184.43,97.59a136.91,136.91,0,0,0,22.9,3.1c4.52,17.43,9.28,34.77,12.3,52.16,7.79,45.51,11.43,91.61,8.33,137.85-3.35,52.63-15.88,105.27-38.62,152.63,59.09,11.06,118.86-18.57,168.79-52.88,51.3-35.15,100.56-77.27,161-92.22,59.9-14.67,129.36-2.41,178.5-39.7,33.31-25.44,52.9-69.6,72.68-105.27,21-37.83,55.59-55.07,96.11-67.16,38.37-11.46,79.82-20.82,107.83-49.68,9.68-10,17.36-22.07,28.67-30.3s24.63-12.49,36.2-18a40.36,40.36,0,0,0,22.91-36.35V2173.45A195,195,0,0,0,4142.34,2137.91Z"/><path class="cls-16" d="M4155.13,2144.85v158.71a40.33,40.33,0,0,1-22.91,36.33c-11.57,5.52-24.77,9.7-36.2,18.05s-19,20.32-28.67,30.28c-28,28.81-69.46,38.24-107.83,49.67-40.52,12.12-75.12,29.34-96.11,67.17-19.78,35.67-39.43,79.83-72.68,105.27-49.14,37.29-118.68,25-178.49,39.7-60.38,14.95-109.71,57.07-161,92.22-38.62,26.52-83.05,50.19-128.42,54.5a142.71,142.71,0,0,1-45.34-2.54c-68.4-15.22-116.18-81.84-184.43-97.6-58.42-13.45-126.67,11.45-175.66-22.9-39-27.32-49.14-82-84.41-114-55.71-50.74-154.65-29.15-206.35-84-19.78-21-29.33-50.49-50.88-69.87-47.24-42.54-131.5-19.11-176.33-64.33-24.63-24.78-30.29-64.36-56.4-87.64-43.35-38.64-122.24-15.07-160.59-58.69-17.36-19.78-24.51-44.68-37.71-65.29a74.89,74.89,0,0,0-33-29.61c-9-4-18.3-7.54-27.06-12.12a60.83,60.83,0,0,1-19.51-15.34,92.77,92.77,0,0,1-14.82-23.28c-3.9-8.89-4.31-18.44-4.31-28V1881.8a10.23,10.23,0,0,1,8.07,2.84,26.1,26.1,0,0,1,5.94,10.41c3.35,8.74,8.33,12.63,16.15,17.63a180.93,180.93,0,0,0,24.76,13.6c15.22,6.85,25.17,20.59,36.89,31.89,37.48,36.08,80.49,65.42,126.26,90,94.36,51,197.48,83.47,293,131.65,127.22,64.21,238.27,155.46,357.26,233.69,118.45,77.8,250.51,144.55,392.11,150.49a10,10,0,0,0,1.89.12c164.09,6.25,319.43-69.19,462.22-150.22l4.31-2.41c71.33-40.67,141.87-83.29,208.2-131.8a1222.61,1222.61,0,0,0,95.57-77c16.42-14.81,35.26-27.46,49.53-44.56a42.86,42.86,0,0,0,7.68-13.86c3.77-10.89,3.89-22.91,6.45-35A194.33,194.33,0,0,1,4155.13,2144.85Z"/><path class="cls-20" d="M4155.27,2072.23h-39.72a227.45,227.45,0,0,0-52.22-40.52l-160.19-92.48-827.21-477.58c-51.56-29.75-119.26-46.85-185.89-46.85-57.21,0-108.26,12-147.53,34.73l-487.2,281.33-138.37,79.82a167.84,167.84,0,0,0-16.66,10.77h-54.21v97.73c0,49.26,33.52,96.91,91.94,130.71l133.67,77.26,853.63,492.67c45,26,102.31,42.27,160.32,46,8.6.54,17.09.81,25.69.81,2.42,0,4.73-.15,7.1-.19,4.41,18.45,8.45,37,9.33,56.22a342.5,342.5,0,0,1-4.85,74.16c45.36-4.31,89.79-28,128.42-54.51,51.3-35.14,100.56-77.26,161-92.21,59.9-14.58,129.36-2.42,178.49-39.71,33.32-25.44,52.91-69.6,72.69-105.27,21-37.83,55.59-55,96.1-67.16,38.38-11.43,79.83-20.82,107.83-49.68,9.68-10,17.37-22.07,28.67-30.27s24.63-12.49,36.21-18.05a40.33,40.33,0,0,0,22.9-36.33V2165.88h.15Z"/><path class="cls-19" d="M4155.27,2045.64v93.57H4155c-1.35,42.11-26.25,79.28-70.79,105l-625.65,361.17a247.15,247.15,0,0,1-67,25.84,346.1,346.1,0,0,1-80.37,8.89c-8.6,0-17.09-.27-25.69-.81-58-3.77-115.36-20.05-160.32-46l-853.46-492.65L2138,2023.32c-58.42-33.79-91.94-81.45-91.94-130.71V1794.9h54.38a164,164,0,0,1,16.66-10.79l138.37-79.82L2742.67,1423c39.31-22.75,90.32-34.72,147.54-34.72,66.62,0,134.33,17.09,185.88,46.84l827.17,477.6,160.2,92.46a228.38,228.38,0,0,1,52.21,40.52Z"/><path class="cls-19" d="M4155.27,2045.64v93.57H4155c-1.35,42.11-26.25,79.28-70.79,105l-625.65,361.17a247.15,247.15,0,0,1-67,25.84,346.1,346.1,0,0,1-80.37,8.89c-8.6,0-17.09-.27-25.69-.81a216.85,216.85,0,0,0,15.2-46.85c11.72-60.17-13.87-108.1-19-165.83-6.06-69.06,47.89-162.07,84.66-217.66A628.51,628.51,0,0,1,3539.16,2035c107.41-72.29,234.62-112,363.83-122.36l160.19,92.46a228.22,228.22,0,0,1,52.22,40.52Z"/><path class="cls-18" d="M4063.27,1915.28l-987.34-569.95c-51.56-29.78-119.35-46.83-186-46.83-57.17,0-108.27,12-147.47,34.69L2117,1694.4c-45.8,26.38-70.89,64.9-70.89,108.43,0,49.32,33.5,97,91.92,130.67l987.26,570c51.55,29.77,119.32,46.8,185.95,46.8h0c57.17,0,108.26-12,147.47-34.68l625.61-361.22c45.8-26.38,70.91-64.89,70.91-108.43C4155.21,1996.69,4121.71,1949.05,4063.27,1915.28Z"/><path class="cls-21" d="M4064,2119.49,3540.22,2422l-101.75,58.67c-62.65,36-164.48,38.5-246.58,8.85a255.66,255.66,0,0,1-46.45-21.09l-22.61-13.14-139-80-825.51-476.62c-86.78-50.12-96.25-125.88-21.09-169.27l625.46-361.17c75.16-43.37,206.54-37.88,293,12.24l987.53,569.83C4129.68,2000.33,4139.16,2076.1,4064,2119.49Z"/><path class="cls-18" d="M4112.78,2062.46c-4.31,17.09-15.47,33.31-33.65,47.12a129.24,129.24,0,0,1-15.07,10L3730,2312.43,3514.17,2187.8l-458.4-264.65c-39.56-22.75-88.42-36.35-137-40.24-57.75-4.71-115.22,4.43-156,28.13l-291.48,168.27-313-180.68a205.59,205.59,0,0,1-36.09-26.13,121.69,121.69,0,0,1-15.61-17.1,94.88,94.88,0,0,1-18.16-36.6c-7.55-33.12,8.33-66,48.85-89.38l54.13-31.23,511.24-295.3,60.15-34.72c75.12-43.35,206.38-38,293.05,12.09L3729.1,1769l314,181.32C4098.45,1982.24,4122.29,2024.65,4112.78,2062.46Z"/><path class="cls-19" d="M4112.78,2062.46c-4.31,17.09-15.47,33.31-33.65,47.12a129.24,129.24,0,0,1-15.07,10L3730,2312.43,3514.17,2187.8a544.76,544.76,0,0,0,84.41-106.18c37-61.38,60.71-131.63,65.15-203.38,1.35-22.21-5.25-50.88,4.16-71.76,11.18-25,36-34.73,61.13-37.48l314,181.32C4098.45,1982.24,4122.29,2024.65,4112.78,2062.46Z"/><path class="cls-19" d="M2922.52,1868.23c-1.21,5-2.44,9.83-3.77,14.57-57.75-4.7-115.22,4.44-156,28.13L2471.24,2079.2l-313-180.57a205.59,205.59,0,0,1-36.09-26.13,121.69,121.69,0,0,1-15.61-17.1c5.12-12.78,10.91-25.44,16.66-37.68,19.77-41.46,41.64-82.24,68.1-119.53l511.3-295.3a456.22,456.22,0,0,1,60.7-3.64c29.14.15,64.89,3,87,23.15,21,19.12,37.48,44,50.35,69.33,25.56,50.35,37,107.27,40.78,163.28A702,702,0,0,1,2922.52,1868.23Z"/><path class="cls-19" d="M4112.78,2062.46c-4.31,17.09-15.47,33.31-33.65,47.12a199.51,199.51,0,0,0-36.08-26.38l-305-176.08-682.26-394c-35.12-20.2-77.53-33.32-120.76-38.65-63.12-7.66-127.6.82-172.31,26.53l-625.5,361.3a128.88,128.88,0,0,0-15.08,10.07c-18.3-17-29.6-35.39-33.77-53.69,5.25-21.55,21.39-41.64,48.85-57.34l625.52-361.3c42.15-24.23,102-33.31,161.67-27.73,46.73,4.43,93.43,17.9,131.38,39.85l714.91,412.7,272.45,157.36C4083.26,2005.39,4106.68,2034.06,4112.78,2062.46Z"/><path class="cls-16" d="M4095,2094.77c-12-15.61-29.15-30.41-51.83-43.47l-305-176.08-682.35-394c-35.12-20.32-77.53-33.31-120.76-38.62-63.12-7.81-127.6.81-172.31,26.52l-625.5,361.15a122.52,122.52,0,0,0-31,24.76c-33.77-44-24.63-93.69,31-125.71l625.52-361.15c42.15-24.39,102-33.32,161.67-27.74,46.73,4.44,93.43,17.91,131.38,39.83L3770.68,1793l272.45,157.36C4115,1991.8,4133.6,2051,4095,2094.77Z"/><path class="cls-20" d="M2935,1442.66c-63.12-7.81-127.6.81-172.31,26.53L2137.2,1830.27a122.52,122.52,0,0,0-31,24.76c-33.77-44-24.63-93.69,31-125.71l625.52-361.15c42.15-24.39,102-33.32,161.67-27.74A284.57,284.57,0,0,1,2935,1442.66Z"/><path class="cls-6" d="M4396.29,377.57l19.93,242.77c5.08,41.65-43.57,58.12-98.2,64.74-54.89,6.28-103.37-22.15-108.45-63.89a64.8,64.8,0,0,1-.26-10.76l15.37-237.81c2-32.86,38.41-59.66,81-60.18C4344.69,312.1,4392.71,348.89,4396.29,377.57Z"/><path class="cls-22" d="M4400.84,520.42c-13.77,18.87-2.78,56.47-32.91,97.27-40.52,55.06-79.47,72.34-97,85.15-29.6,21.81-73.6,13.18-86.53-3.67-29.37-37.86-47.32-74.95-65.73-119.08-43.26-103.59-41.78-215.23-39.46-268.5,34.08-115,103.91-146,235.3-141.7C4464.71,174.8,4511.42,368.69,4400.84,520.42Z"/><path class="cls-12" d="M4283.32,383.16c25.88,28.21,48.36,66.16,72.62,98.21,27.21,11.52,54.61,24.93,54.61,24.93,40.07-36.11,46.05-74.1,54.88-132,7.32-48.44-2.39-116.69-25.67-141.14Z"/><path class="cls-11" d="M4089.89,393.11c152.07,50.36,306.17,9.09,354-138.54-10.93-122.45-211.27-153.69-319.67-57.7C4039.64,271.94,4039,376.55,4089.89,393.11Z"/><path class="cls-22" d="M4384.64,442.32c22.62-73.63,71.12-39,75-10.2,4.89,34.44-25.4,84.29-63,96-4.58,1.58-14.21-31.83-14.78-44.17C4381.16,466.69,4380.88,454.48,4384.64,442.32Z"/><path class="cls-12" d="M4116.93,572.41c1.84,9.77,4.65,37.3,6.68,43.78,13.77,43.75,18.59,62.19,23.64,73.67,12.3,27.95,64.07,49,96.33,37.64,33.66-11.77,58.8-27,80.24-51.38,20.7-23.48,41.72-46,55.12-73.28,11.08-22.5,15.41-53.65,12.79-77.85-3-28.55-20.9-63.89-25.91-95-5.12,6.78-1.6,32-6.94,35.51-20.38,58.17-68.09,117.32-95.49,149.42-2.88-12.51-9.63-23.39-21.73-28.9-21.4-9.77-47.67-5.84-70.46-9.6-12.31-2.05-40.63-6.23-43.43,10.88a25.08,25.08,0,0,0,.58,7A165.08,165.08,0,0,1,4116.93,572.41Zm24.73,48.14c1.73-6.62,3.21-11.95,7.3-14.47,6.75-4.27,13.64.13,20.85,1.32,8.28,1.29,16.93,1.37,25.27,2.31,13.93,1.66,19.65-.39,32.69,5.29,6.21,2.78,13.29,11,16.65,16.43-21.13,22-48.13,18.44-56.45-.6-1.54-.12-16.58-2.68-21-3.33C4168.08,649.19,4154.7,641.21,4141.66,620.55Z"/><path class="cls-15" d="M3984.88,812.93c-17.49,81.07,28.1,238.83,37.57,321.22,16.18,140.85-2.07,288.46-6.13,361.53-2,35.69-4.29,60.15-6.5,76.92a157.92,157.92,0,0,0,37.88,124.9c67.73,77,209.89,166.4,599.85,74.19,0,0-6.21-220.86,15.24-416.95C4681.47,1183.92,4672,984,4672,984L4003,728.7Z"/><path class="cls-7" d="M3784.9,1043.77l106.64,332.15L3644.7,1479.65a100.12,100.12,0,0,1-44.87,7.6l-49.37-3a56.79,56.79,0,0,0-7.38,0l-72.45,5.33a54.77,54.77,0,0,0-33.91,15l-30.65,29.28a34.6,34.6,0,0,0-10.68,25h0a34.52,34.52,0,0,0,20,31.3l28.42,13.17a55.11,55.11,0,0,0,26.84,5l81-5.31a55,55,0,0,0,22.27-6.34l62.54-33.2a100.57,100.57,0,0,1,34-10.82l208.78-27.07c49-6.34,93.94-32.25,121.51-73.18,13.27-19.75,23-43.05,22.82-69.12-.31-57-100.71-379.36-100.71-379.36Z"/><path class="cls-8" d="M3952,1015.47a23.38,23.38,0,0,1,0,7.65,25.22,25.22,0,0,1-3.73,8.53c-13.69,20.49-37,32.24-60.88,40.24-4.86,1.58-9.72,3.14-14.65,4.44a257.6,257.6,0,0,1-37.25,7.9,227.06,227.06,0,0,1-40.81.22c-10.79-1-22.56-2.61-30.38-10.23-5.13-4.54-7.89-11.28-10.78-17.77-10-24.11-18.64-49-23.5-74.47-5.07-28-6.3-60.58,3.64-87.46a136.48,136.48,0,0,1,48.89-63.45,59.7,59.7,0,0,1,14.75-7.58c40.46-15.32,85.35,12.78,108.87,47.2C3934.35,911.76,3947.24,966.48,3952,1015.47Z"/><path class="cls-10" d="M3952,1015.47a23.38,23.38,0,0,1,0,7.65,25.22,25.22,0,0,1-3.73,8.53c-13.69,20.49-37,32.24-60.88,40.24,0-8.49.31-17.3.14-25.67a417.38,417.38,0,0,0-21.73-130.9c-6.85-20.34-15.32-40.45-28.49-57.65a109.79,109.79,0,0,0-27.41-26.38c-4-2.66-8.43-5.17-12.66-7.76,40.46-15.32,85.35,12.78,108.87,47.2C3934.35,911.76,3947.24,966.48,3952,1015.47Z"/><path class="cls-5" d="M4339.22,1424.8l55.87-470.93s27.94-187.57,175.6-175.6,107.76,311.29,75.83,423c-21.87,76.53-56.83,214.82-76.7,294.39a299.86,299.86,0,0,1-67.65,127.53c-65.06,72.58-189.37,182.79-366.4,216.62L4043.89,1764S4291.33,1564.48,4339.22,1424.8Z"/><path class="cls-6" d="M3843.17,1927.2c11.61-37.89,42.49-70.63,66.3-101.41,16.42-21.24,46.9-37.26,74.26-43.64,20.28-13.94,65.29-23,82.5-27.58,20.84-5.53,50.85,15,72,32.79a35.47,35.47,0,0,1,2.06,52.47c-20.68,20.09-47.93,35.62-77.35,48.47-14,25.25-29.59,50.91-51.13,68.63-4,3.08-12.49,11.76-17.42,9.64-16.65-7.19,18.16-52.61,24.24-71.44a16,16,0,0,0-4.48-5.12c-.08,0-.23-.07-.34-.11-34.7,34.15-44.56,44.6-69.48,70.67-13.42,14-37.37,31.62-56.06,26.25,1.23-11.68,12-22.55,17.5-32.89,6.71-12.94,15.31-24.54,24.62-35.56-5.3,3.3-11.6,7.46-21.84,13.28-7.52,4.3-40.08,42.26-51.79,39.15-15-4-6.42-24.92,7-39.67C3856.78,1933.2,3848.48,1933.35,3843.17,1927.2Z"/><rect class="cls-21" x="2027.89" y="73.04" width="1107.06" height="763.91" rx="142.98"/><g class="cls-23"><path class="cls-3" d="M2796,404l-.49,172c-.08,31.27-20.63,62.49-61.68,86.34-82.63,48-217,48-300.21,0-41.85-24.16-62.76-55.88-62.67-87.55l.49-172c-.09,31.67,20.81,63.39,62.67,87.55,83.17,48,217.58,48,300.21,0C2775.36,466.44,2795.9,435.22,2796,404Z"/><path class="cls-24" d="M2733.32,316.4c83.18,48,83.62,125.87,1,173.89s-217,48-300.21,0-83.61-125.87-1-173.89S2650.15,268.38,2733.32,316.4Z"/></g><g class="cls-23"><polygon points="2951.13 395.22 2951.09 408.31 2584.65 621.26 2584.68 608.18 2951.13 395.22"/><polygon points="2584.68 608.18 2584.65 621.26 2215.81 408.31 2215.85 395.23 2584.68 608.18"/><polygon class="cls-3" points="2951.13 395.22 2584.68 608.18 2215.85 395.23 2582.29 182.27 2951.13 395.22"/></g><path class="cls-5" d="M2428.22,685.53h-.08a5.64,5.64,0,0,1-5.56-5.71l2.2-162.22a5.58,5.58,0,0,1,1.44-3.69l141.94-157.84a5.64,5.64,0,0,1,8.38,7.54L2436,519.87,2433.85,680A5.63,5.63,0,0,1,2428.22,685.53Z"/><path class="cls-5" d="M2448.44,734.22V689.7a20,20,0,0,0-20-19.94h0a19.94,19.94,0,0,0-19.94,19.94v45h0c0,2.95,2,5.9,5.89,8.15,7.81,4.48,20.45,4.48,28.21,0C2446.77,740.48,2448.7,737.32,2448.44,734.22Z"/><path class="cls-3" d="M2601.47,344l0,14.56c0,2.65-1.74,5.29-5.22,7.31-7,4.07-18.38,4.07-25.42,0-3.55-2-5.32-4.73-5.31-7.41l0-14.56c0,2.68,1.76,5.36,5.31,7.41,7,4.07,18.42,4.07,25.42,0C2599.72,349.29,2601.46,346.65,2601.47,344Z"/><path class="cls-25" d="M2596.16,336.58c7,4.07,7.08,10.66.08,14.73s-18.38,4.07-25.42,0-7.08-10.66-.08-14.73S2589.12,332.52,2596.16,336.58Z"/><polygon class="cls-21" points="3024.66 779.77 3290.19 828.79 3126.79 681.72 3024.66 779.77"/><rect class="cls-3" x="116.94" y="71" width="1478.53" height="1819.73" rx="193.23"/><rect class="cls-21" x="224.99" y="419.78" width="1262.44" height="238.84" rx="110.89"/><text class="cls-26" transform="translate(267.7 383.32)">Starting Principal</text><rect class="cls-21" x="224.99" y="798.89" width="1262.44" height="238.84" rx="110.89"/><text class="cls-26" transform="translate(267.7 762.43)">Monthly Addition</text><rect class="cls-21" x="224.99" y="1178" width="1262.44" height="238.84" rx="110.89"/><text class="cls-26" transform="translate(267.7 1141.54)">Interest rate</text><rect class="cls-21" x="224.99" y="1557.11" width="1262.44" height="238.84" rx="110.89"/><text class="cls-26" transform="translate(267.7 1520.65)">Investment Length</text><circle class="cls-21" cx="1319.2" cy="179.52" r="27.96"/><circle class="cls-21" cx="1395.97" cy="179.52" r="27.96"/><circle class="cls-21" cx="1472.74" cy="179.52" r="27.96"/><text class="cls-27" transform="translate(886.84 610.67)">$5000</text><text class="cls-27" transform="translate(989.79 991.55)">$100</text><text class="cls-27" transform="translate(1136.17 1366.21)">7%</text><text class="cls-27" transform="translate(864.8 1745.01)">18 <tspan class="cls-28" x="252.77" y="0">years</tspan></text><text class="cls-29" transform="translate(658.88 2207.58)">End Balance:</text><text class="cls-30" transform="translate(105.52 2486.7)"><tspan xml:space="preserve"> $60,886.05</tspan></text><path class="cls-5" d="M3015.91,2099.5c-1.61.34-5.6,2.08-11.43,4.89l0,0c-45.78,22.09-204.25,110.38-204.25,110.38s-38.36,4.41-81.49,7.81L2677,2198.51l-194.24-112.15-12.21-7.05L2444,2064c2.41-9.1,7.08-16.32,14.19-19.61,10-4.64,24.92-4.63,40.37-1.1a118.12,118.12,0,0,1,40,17.3c51.52,35.7,79.11,52.44,119.76,51.63,13.85-.28,39.09-5.82,63.32-12h0c22.2-5.68,43.56-11.94,54.5-15.22h0c4.79-1.43,7.59-2.3,7.59-2.3l60.51-35.18,34.18-19.87a138.57,138.57,0,0,1,14.56-15.07q1.62-1.47,3.4-3c13.07-11.08,32.14-23.38,53.35-24.58,30.45-1.73,75.61,15.14,94.84,28.31.45.3.89.61,1.31.91l0,0c1.3.94,2.47,1.87,3.47,2.75l0,0c2.67,2.36,4.21,4.51,4.35,6.27C3054.7,2035.08,3030.12,2096.48,3015.91,2099.5Z"/><path class="cls-5" d="M2718.74,2027.62c-5.77.17-43.46,28.24-19.69,56.63s79.65,26.37,109.56,26.37,65.42-16.25,65.42-16.25,36.54-62.62,11.73-99.13-38.41-38.71-38.41-38.71Z"/><path class="cls-31" d="M2731.94,2043.41l24.38,39.26s44.1,13.93,82.2-26.67c19.78-21.08-.57-52.68-.57-52.68Z"/><path class="cls-7" d="M2850.3,1957.66c-11.13-44.09-55.88-83.79-100.62-90.37-23.4-3.45-47.35,3.44-67.08,16.22-55.73,36.06-51.55,79-35.72,113.73,9.89,21.67,28.15,38.65,50,49.63a134.53,134.53,0,0,0,45.62,13.49h0c32.46,3.56,65.63-5,88.14-28.61a86,86,0,0,0,12.8-17.16C2853.68,1996.32,2855.09,1976.58,2850.3,1957.66Z"/><path class="cls-3" d="M3651,2357.62,3539.51,2422l-101.75,58.67c-62.65,36-164.48,38.5-246.57,8.85a255.36,255.36,0,0,1-46.45-21.09l-22.62-13.14-139-80-264.4-152.65L2677,2198.51c33.25-35.27,70.12-63.6,106.22-88,36.47-24.63,72.16-45.26,102.56-65q3.72-2.41,7.47-4.62a203.16,203.16,0,0,1,28.6-13.91c45.48-17.93,91.2-17.55,122.76-13.69l.17,0h0c24.93,3.06,41,8.27,41,8.27,85.19,23.48,330.49,114.72,445.59,212C3578.52,2273.54,3619.3,2318.49,3651,2357.62Z"/><path class="cls-5" d="M2894.4,2008.19s95.88,66.53,129.93,84.66c-38.42,23.81-63.34,29.3-90.37,64s-19.43,62.25,28.17,52.6c23.29-4.73,133.63-45.52,153.51-79.47s-20-76.36-69-115.19C2947.17,1936,2894.4,2008.19,2894.4,2008.19Z"/><path class="cls-7" d="M2957.71,2154.36c-22.36,2.75-42.79,3.38-66.07,20s-7.72,60.46,5.47,67.69,13.66-11.66,22.82-12,52.46-22.23,56.65-35.44S2957.71,2154.36,2957.71,2154.36Z"/><path class="cls-7" d="M2499.77,2053.78c0,13.42-6.46,26.41-17,32.58l-12.21-7.05L2444,2064l-39.08-22.56c-7.25-14-9.9-28.59-5.94-40.43,9.62-28.74,17.72-22.55,40.5-5.23,20.37,15.5,52.53,20.6,59.08,47.51A43.81,43.81,0,0,1,2499.77,2053.78Z"/></g></g></svg>