<svg id="Layer_1" data-name="Layer 1" xmlns="http://www.w3.org/2000/svg" xmlns:xlink="http://www.w3.org/1999/xlink" viewBox="0 0 4500 2500"><defs><style>.cls-1{fill:none;}.cls-2{fill:#aed3f0;}.cls-3{fill:#c3dcf3;}.cls-10,.cls-11,.cls-12,.cls-13,.cls-14,.cls-15,.cls-16,.cls-17,.cls-18,.cls-24,.cls-25,.cls-28,.cls-29,.cls-3,.cls-34,.cls-5,.cls-6,.cls-7,.cls-8,.cls-9{fill-rule:evenodd;}.cls-4{clip-path:url(#clip-path);}.cls-32,.cls-5{fill:#44ae9e;}.cls-6{fill:#35897c;}.cls-7{fill:#e4effa;}.cls-8{fill-opacity:0.13;}.cls-9{fill:#f9fbfe;}.cls-10{fill:#ecf3fb;}.cls-11{fill:#b9d6f2;}.cls-12{fill-opacity:0.17;}.cls-13,.cls-15{fill:#ffc787;}.cls-13{fill-opacity:0.99;}.cls-14{fill:#ffab65;}.cls-16{fill:#71c7ba;}.cls-17{fill:#47b6a5;}.cls-18{fill:#2a6d63;}.cls-19{fill:#ec6198;}.cls-20{fill:#e73a7f;}.cls-21{fill:#f4a4c4;}.cls-22{fill:#fff;fill-opacity:0.42;}.cls-23{fill-opacity:0.18;}.cls-24{fill:#f2e19a;}.cls-25{fill:#eed97e;}.cls-26,.cls-34{fill:#fbf5dc;}.cls-27{fill:#e6c641;}.cls-28{fill:#b79818;}.cls-29{fill:#cdaa1b;}.cls-30{fill-opacity:0.23;}.cls-31{fill:#9be6e1;}.cls-33{fill-opacity:0.24;}</style><clipPath id="clip-path"><rect class="cls-1" width="4500" height="2500"/></clipPath></defs><g id="c69"><rect class="cls-2" width="4500" height="2500"/><path class="cls-3" d="M825.53,2500q9.4-21.7,20.11-42.25c123.67-237.16,443.5-414.77,686.14-497.1,244.74-83,582.24-98.84,832.36-33.78,182.11,47.36,369.13,76.28,549.93,127.11,390.31,109.76,881.58,337.74,1294.46,218.52,95.47-27.57,204.66-70.95,291.47-130V2500ZM4500,521.47C4365.74,411.6,4198.51,367,4029.29,335.25,3237.41,186.68,2683.62,499.12,1921.58,587.41,1325.76,656.43,746.07,408.56,321,0H4500Z"/><rect class="cls-1" width="4500" height="2500"/><g class="cls-4"><path class="cls-5" d="M1014.41-81.56c-4.41,127.67,18.41,396.24,114.5,482.09,167.17,149.32,761.87,294,979.29,330.65,230.87,38.94,1537.69,185.57,1731.86,83.91,76.78-40.18,189.71-489.41,186.33-556.43-26.77-533.52,136.38-432.18-343-480.94-84.42-8.58-166.72-26.41-251.55-31.95-287.21-18.82-577.56-34.42-865.35-34.69-479.69-.46-972.76,14.68-1449.83,72.48"/><path class="cls-6" d="M1144.77-28.31c-7.16,16.08,114.31,169.25,150.56,172C1443.77,155,1580.87,216,1729.9,230.47c145,14.1,297.18-16,439,29.86,10.21,3.31-14.4-16-22.63-22.94-18.6-15.58-27.9-23.62-29-49-2-46.26,53.35-85.64,46.88-142.65-2.27-19.88-35.28-147.23-14.66-154.54,25.5-9.07,59.11,7.23,85.84,7.72,206.56,3.76-50.77,193.21,53.51,276.1,3.7,2.93,9.2,3.58,13.76,4.11,48.87,5.6,104.82,20.26,153.93,21,1,0,12.79,0,12.68.54-2.73,14.14-49.33,39.18-4.61,45.5,72.36,10.22,148.23,1,221.12,8.45,57.67,5.86,339.08-25.77,375.59-55.75,29.22-24-19.92-83.27,0-106.4,43.14-50,124-81.14,178.41-118,59.87-40.53,122-96,192.89-116.32,135-38.73,254.12,244.31,263.1,338.2,4.54,47.69-33.29,82.78-60.69,116.94C3491.24,492.83,3390,503,3171.39,555.37c-200.45,48-378.09,27.86-580.55,18-109-5.27-218.89,5.65-327.82-.67-344.44-19.93-695.31-138.91-996.32-297.46"/><path class="cls-6" d="M2932.06,148.28c-68.3-44.32-256.45-40.66-336.58-41-32.49-.14-63.91-5.41-95.92-10.11-13.14-2-26.46-3.29-39.52-5.36-7.67-1.21-29.76-3.14-23.24,1,71.74,45.91,350,94.86,454.46,85,48.5-4.57,105.39-23.42,152.44-7.47"/><path class="cls-6" d="M1942.63,140.43c-133.7,5.24-275.73-36-409.29-8.79-2.87.59-38.93,6-39.44,8.41-1.87,9.2,51.37,17,56.46,17.62,30.06,3.87,60.16,6.4,90.19,10.92,105.52,15.92,227.34,70.6,335.16,51.69,26.84-4.71,190.64-59,53.54-62.05"/><path class="cls-7" d="M-96.72,137.07l4727,359.85L4602.23,2724.2-66.56,2619.45Z"/><path class="cls-8" d="M1953.55,1396.25,1723.77,2513.79l172.85-42.6Z"/><path class="cls-9" d="M3649.37,1362.43,1953.19,1390.6l-295,1584.79,2176.35-142.71Z"/><path class="cls-10" d="M3599.45,1409.3,1993,1435.79,1715.58,2926.51l2061.06-134.24Z"/><polygon class="cls-11" points="2060.12 1579.48 2665.21 1566.44 2662.55 1582.46 2057.47 1595.49 2060.12 1579.48"/><polygon class="cls-11" points="2048.07 1658.54 2889.47 1640.41 2886.48 1658.47 2045.08 1676.59 2048.07 1658.54"/><polygon class="cls-11" points="2014.26 1916.9 3184.28 1891.7 3181.82 1906.55 2011.81 1931.75 2014.26 1916.9"/><path class="cls-8" d="M1974,1386.76,1952.2,2504.3l164.92-42.6Z"/><path class="cls-9" d="M3663.51,1352.94l-1690.94,28.17V2965.9l2149.79-142.71Z"/><path class="cls-10" d="M3622.31,1399.81,2020.82,1426.3V2917l2036.07-134.24Z"/><polygon class="cls-11" points="2114.66 1569.98 2717.31 1556.95 2717.64 1572.97 2114.98 1586 2114.66 1569.98"/><polygon class="cls-11" points="2117.32 1649.05 2955.35 1630.92 2955.72 1648.98 2117.69 1667.1 2117.32 1649.05"/><polygon class="cls-11" points="2131.6 1907.41 3296.92 1882.21 3297.23 1897.06 2131.9 1922.26 2131.6 1907.41"/><path class="cls-12" d="M1131.72,235.34,335.41,1488.22l267.37,84.72-224.61,300.6,959.68,143.22,565-1207.45-447.69-98.79c58.31-134.61,79.92-284.2,49.09-455.22ZM2951,1001c23.38,42-59.54,438.07-40.43,462.73,35.6,46-5.52,175.3,135.09,248.83s366.48,126.54,366.48,126.54l310.1-244.23,250.44-302.76,66.81-438.31,237.61-391.59-209.35-11.78Z"/><path class="cls-13" d="M4107.18,2524.83c-5.26-64.73-44.82-233.64-90.33-281.31-61.74-64.68-155.65-105.64-231.38-151.24-104.8-63.13-192.32-149.6-302.46-204.84-77.53-38.83-265.72-52.3-356.48-63.68-94.78-11.91-188.69-17.37-283.83-25.41-31.21-2.62-90.29-16.52-118.43,5.22-44.46,34.33-11.7,118.37,58.67,149.3,75.18,33.06,112.78,51.45,245.34,68.55,5.67.74,89,51.06,89,51.06s-108.85-2.7-120.69-2.7c-104.39,0-195.78-16.57-284,48.27-29.76,21.88-59.08,104.59-34.33,138.37,8,10.93,30.8,18,35.89,29.22,1.27,2.79-19.76,5.93-21.3,6.18-12,1.94-22.47,8.43-34.5,10.53-24.14,4.22-42.86,35-48.15,57.66-6.16,26.49,14.21,55,37.91,66.39,6.17,3,32.13,8.34,33.81,16.52.08.39-26.87,8.2-29.18,10.14-18.26,15.27-25.14,40.48-22.22,63.79,9.53,75.7,191.16,88.82,240.08,91.58,20.76,1.16,41.6.36,62.36,1.36,73.55,3.59,146.53,6.65,220.15,2.92,158.73-8,321,10.83,477.55,34.17"/><path class="cls-14" d="M2714.2,1887.8c12.77,26.21,36.91,51.1,68.74,65.07,75.18,33.06,112.78,51.45,245.34,68.55,5.67.74,89,51.06,89,51.06l-4.65-.11a349.85,349.85,0,0,1,65.19,28.86c29.57,17,66.51,29.94,99,40,6.11,1.91,32.62,1.44,29.48,12.07-7,23.86-48.67,38.61-67.12,50.82-79.58,52.61-121.21,39.41-213.87,22.18-41.21-7.68-78.57-15.3-117.16-30.63-15.09-6-16.47-79.73-38.3-79.29-10.95.25-.71,32.17.69,37,6.74,23.09,35.43,87.55-.88,99.56-45.12,15-120.22-3.64-164.3-12.29-4.79-1-21.88-8-36-10.24,1,10.1,3.8,19.14,8.87,26.07,8,10.93,30.8,18,35.89,29.22.25.52-.27,1.05-1.32,1.57,16.27,7.9,33.29,14.11,51.12,17.37,107.75,19.8,217.05,32.45,323.45,60.82,50.29,13.39,96.68-4.75,88.17,66-1,8.23,1.74,18.73-2.81,26.16-5.91,9.69-52.74,2.07-62.87,2.07-42.95,0-85.73-3.45-128.45-5.5-21.42-1.05-45.62,1.74-64.53-10.33-22-14-9.86-48.22-9.83-70.09,0-6.79-.5-26.65-9.11-28.75-7.57-1.85-7.41,14.28-7.63,18.59-1.15,22.53.85,44-9.52,64.57-11.43,22.67-59,9-76.29,6.68-48.23-6.52-101.91-15.49-147.72-32.15-20.48-7.43-44.82-46-45.75-36.81-2.92,28.91,17.29,48.88,42.78,62.64,8.48,2.7,22.1,6.6,26.65,11.79a332.16,332.16,0,0,0,32.78,9.94c44.66,11.27,90.41,11.32,135.2,20.63,33.37,6.93,65.9,17.7,99.27,25.44,47.13,10.91,97.51,8.75,145.27,16.29,40.75,6.44,84.08,7.15,123.94,18,4.24,1.13,32.54,8.34,30.91,12.73-4.9,13.48-39.89,9-48.94,9-44.41,0-88.59,3.4-133,3.4-31.82,0-119.39,14.67-143.21,6.3-17.45-6.13-27-15.72-35.84-31.54-3-5.44-3.47-22.32-12.53-21.9-5.64.27-3.93,19.3-4.48,23.42-2,15.16-9.72,22.39-21,31.15-12.11,9.36-92.33-11.71-105.41-15.63-22.35-6.66-72.21-20.3-108.77-16.1,29.35,62.88,190.28,74.45,235.87,77,20.76,1.16,41.6.36,62.36,1.36,73.55,3.59,146.53,6.65,220.15,2.92,158.73-8,321,10.83,477.55,34.17l250.21-64.08c-1.7-20.63-4.35-41.31-5.78-61-5.67-77.61-39.26-130.55-65.68-202.52-15.28-41.6-37.42-99-67.23-132.49-40.55-45.51-143.12-77.52-197.47-99.39-88.75-35.74-182.82-66.4-276-87.28-37.71-8.45-80.82-9.47-119.36-13-82.59-7.57-165.4-15.39-247.9-23.67-44.08-4.42-107.62-17.54-143.51-45.16C2742.8,1906.67,2729.37,1897.36,2714.2,1887.8Z"/><path class="cls-14" d="M2926.67,1990.79c38-9.42,71.16-20.22,95.8-53.77,9.19-12.51,15.25-29.11,26.59-39.88,1.16-1.11,11.1-9,13.19-5,6,11.49-15.66,34.78-21.12,43.92-9.16,15.21-26.67,43.8-7.9,59.26,6.45,5.31,15.14,6.69,21.42,11.77"/><path class="cls-15" d="M3158.63,2540.49c-.72-12.84-7.38-26.4-9-39.63-5.59-44.35-7.79-93.62-4.49-138.34,8.4-113.15,58.86-224.22,107.5-325,20.29-42.06,50.41-86.86,56.52-134.11,18.58-143.23-67.17-279.6-67.2-423.1,0-48.14,62.82-141.43,119-134.17,19.82,2.54,42.81,9.42,52.12,24.08,28.32,44.74,56.38,90.59,86.24,134.39,63.85,93.71,89.09,199.21,118.68,307.11,22.74,82.77,52.91,163,74,246.27,17.37,68.65,26.68,138.89,49.25,206.19,23.87,71.23,48.51,142.53,80.83,210.28,12.74,26.65,25.1,63.74,2.64,88.38"/><path class="cls-14" d="M3305.42,1409.3c-1,8.15,3.77,17.92,6.35,25.46,7.27,21.07,16.72,42,30.12,59.77,6.31,8.37,12.2,17.62,24.5,16.1,7.74-1,16.25-9,22.8-12.84,16.07-9.31,32.12-18.07,48.75-26.19,6-2.92,12.58-3.86,18.75-6.1,1-.36,5.17-.55,4.84,1.41-.77,4.5-11.12,7.29-14.39,9-13.82,7.18-27.4,14.83-41,22.32-18.77,10.27-30.72,24.52-53.82,20.21-12.28-2.29-21.42-19.55-25.41-29.71-10.65-27.23-23.67-52.15-23.76-82.36"/><path class="cls-14" d="M3411,1903.08a248.1,248.1,0,0,0,45-9.86c7.27-2.35,14.75-5.06,22.24-6.63,8.78-1.82,19.24-4.23,28.14-1.94,1.9.5,7.76,2.38,6,5.56-3,5.6-13,9-18.58,10.77-16.41,5-34.05,11.93-51,14.08-5.95.75-21.53,5.25-23.87-3.23"/><path class="cls-14" d="M3270.37,1401c-3.11,19.88-1.71,42.64-3.58,58.82-14.86,128.21,34.83,239.78,90,352.24,6.34,12.93,19.19,45.4,37,46.43,13.33.74,70.48-17,67.37.22-4.27,23.55-51,21.48-67.5,29.63-9.75,4.83-2.92,26.54-9,34-11.56,14.14-30.22,6.16-39.8,24.44-34.86,66.62-35.79,165.65-55.56,238.32-16.65,61.2-47.79,116-59.46,178.93-12.23,65.84,1.48,119.72,18.22,179.54l-89.44-3c-.72-12.84-7.38-26.4-9-39.63-5.59-44.35-7.79-93.62-4.49-138.34,8.4-113.15,58.86-224.22,107.5-325,20.29-42.06,50.41-86.86,56.52-134.11,18.58-143.23-67.17-279.6-67.2-423.1C3241.93,1460.75,3253.22,1430.07,3270.37,1401Z"/><path class="cls-16" d="M3258.12,206.11c-8.56-13.4,4.51-52.7,6.61-65,7.24-42.64,20.81-80.92,31.82-122.21,5.51-20.69-.41-39.3,21.69-49.44C3389.43-63.22,3474-70.65,3550-85.37c158-30.63,322.94-61.34,483.47-35.44,41.92,6.77,83.66,4,125.26,12.38,14.75,3,36.42-1.55,48.53,9.8,36.23,33.94,50.24,156.37,55.42,204.12,4.54,41.84,9,90.62,1.76,132.46-10.88,63.16-123.42,141.82-167.27,185.12-25.22,24.91-50.74,49.77-75.9,74.79-6.19,6.13-18.88,24.25-26.76,27.37-1.9.74-5.12-12.49-5.28-13.18-2.23-10-2.59-19.77-3.8-29.88a468.67,468.67,0,0,0-15.72-78.4c-23-79.27-33.61-160.13-69.59-235.2-11-23-22.17-53.38-43.09-69.54-60.75-46.92-167-63.77-239.37-43.55-34.21,9.55-67.11,23.83-101.14,34.3-75.84,23.36-148.6,43-213.93,90.36"/><path class="cls-17" d="M4242.82-18.29c11.09,45.43,16.9,96.66,19.82,123.78,4.54,41.84,9,90.62,1.76,132.46-10.88,63.16-123.42,141.82-167.27,185.12-18.53,18.31-37.22,36.57-55.8,54.9-17.26,3.18-38,5.91-51.73-.74a30,30,0,0,1-5.23-3.26,463.15,463.15,0,0,0-14.7-70.2c-19.88-68.33-30.45-137.87-56.08-203.88,11.12,9.81,23.35,19.33,35.18,26.4,54.29,32.45,126.39-19.55,135.7-77.13,3.8-23.56-8.65-64.21,12.77-82.39,14.89-12.64,34.19,12.57,45.45,17,15.78,6.13,30.39-7,40.64-18.14C4206.17,40.84,4224.54,10.79,4242.82-18.29Z"/><path class="cls-5" d="M3251.71,147.06c-6.06,29-14.35,57.11-16.71,87.16-1.46,18.73-1.38,37.37-1.38,56.2,0,148,118.65,17.84,173.65-13,57.13-32.12,218.39-79.93,282.45-60.87,78,23.22,69.6,58.08,85.48,132.76,18.75,88,27.92,177.14,45.51,265.35,2.72,13.69,18.2,120.55,27,125.27,7,3.73,15.58.44,22-2.51,42.81-19.69,34.27-47.78,57.18-90.4,8.64-16.1,23-28.61,33.64-43.27,22.9-31.57,59-63.77,70.75-101.75,11.06-35.76,1.7-81.3-1.3-117.45-7.81-94.95-15.74-219.23-75.73-298.47-20.51-27.12-44.6-54.21-72.35-73.77-197.13-138.77-391.19,16.35-575.52,85.09"/><path class="cls-18" d="M3233.62,286.72c3.55-4.94,7-9.94,10.35-15.13,50.1-78.63,159.92-169.13,253.35-180.43,29.51-3.56,58.58-13.17,87.93-16.32,18-1.94,35.93-1.22,53.93-3.56,27.92-3.65,63.07-7.88,90.54.3,47.57,14.14,79,52.2,109.38,88.93,31.49,38,80.69,65.48,99.52,113.31,9.11,23.15.85,49.49-1.49,73.16-6.58,66.45-34.36,124-47.76,188.63C3880.78,577,3876.68,621,3872.68,663c-2.39,25.6-1.18,51.42-10.26,76-.17.47-.36.94-.55,1.41-4.71,1.36-9.75,1.8-14.13-.55-8.83-4.72-24.31-111.58-27-125.27-17.59-88.21-26.76-177.31-45.51-265.35-15.88-74.68-7.46-109.54-85.48-132.76-64.06-19.06-225.32,28.75-282.45,60.87-55,30.87-173.65,161.06-173.65,13Z"/><path class="cls-15" d="M3276.65,244.77c-28.61,20.93-38.16,71-45,103-18.47,86.94-28.08,176.2,4.74,260.8,20.42,52.61,71.55,120.33,38.62,176.39a445.64,445.64,0,0,1-32.84,49.1c-10.16,13-18.58,54.88-32.71,61.34-22.87,10.47-48.56-39.13-55.55-52.66-27-52.37-25.3-147.48-94.92-159.88-24.94-4.42-51.87,21.29-65.93,40.57-20,27.53-12.28,58-12.5,88.62,0,2.71-44.46,44.55-49.25,50.65-15.8,20.19-3.06,39.25,2.94,59.33.42,1.35-22.46,4-23.56,4.11-12.8,1-24.45,9.61-26.73,22.9-7.9,45.76,7.95,110.05,38.29,145.74,12.91,15.21,30.23,26.51,42.73,42.83,57.5,75,127.92,168.5,224.72,192.83,50,12.56,189.54-25.8,241-50.76,43.22-21,79.61-56.12,114.44-88.52,63.32-58.85,129.36-114.56,185.38-180.76,41.6-49.13,94.54-99.78,112.07-164,16.85-61.78,12-130.57,16.35-193.87q5.51-79.34,13.88-158.36c9.47-88.49,37.16-193.63-9.25-276.46-13.16-23.47-37-41.95-55.09-61.25-26.89-28.75-70.61-63.91-112.21-52.23"/><path class="cls-14" d="M3252.37,820.41c-3.28,4.64-6.67,9.22-10.16,13.69-10.16,13-18.58,54.88-32.71,61.34-22.87,10.47-48.56-39.13-55.55-52.66-15.94-30.88-21.89-76.64-38.35-111.52-4.46,18.25-11.37,35.62-15.17,54-4,19.5,2.51,41.15-5.37,59.74-12,28.17-63.84-11.21-57.59,5.44,6.64,17.65,25.58,19.3,39,30.16,40.6,33,67.77,66.34,67.8,120.66,0,7.76,4.57,37.23-1.15,43.69-6.42,7.24-27.2-10.74-32.65-13.34-35.32-16.82-63.21-42.56-96.41-62.83-5.23-3.2-33.37-28.09-39.59-12.73-4.84,12,13.63,26.32,21,33,20.18,18.22,67.64,43.58,73.5,73.16,4.63,23.31-35.73,59.73-28.41,71.77,11.65,19.2,30.12-41,47.74-27.31,8.06,6.24,2.45,82.5,5.12,97.71,7.54,43.36,117.6,76.64,154.79,66.34,38.55-10.69,98.34-77.38,135.86-102.88,6.44-4.36,65.49-73.21,79.81-121.54,13.82-46.56-11.45-105.56-12-108.07-7.51-36.84,139.11-30.27,149.54-37.2,27.84-18.48,5.32-58,25.08-115.28,22.63-65.53,85.87-150.54,90.24-189.45,11.4-101.36,64.89-219,22.49-319.38-22.07-52.3-104.69-93.32-157.74-75.39-76.67,25.93-243.22,600.21-283.66,668.1Z"/><g id="g450"><path id="path452" class="cls-19" d="M3171,236.49l55.54,1148c-31.79,21.15-65.18,24-100.52,4.9l-55.55-1148c32-18.49,65.68-18.5,100.53-4.9"/></g><g id="path454"><path class="cls-20" d="M3216.42,1406.89c-26,16-52,16.62-78.23,3.81l-1.05-21.81c27.06,14.27,53,11.17,78.23-3.81l1.05,21.81"/></g><g id="g456"><path id="path458" class="cls-21" d="M3158,237.15c-24.63-3.78-49.36-4.78-74.5,3.62l-1.5-30.84c23.74-15.2,48.64-15.57,74.51-3.63l1.49,30.85"/></g><g id="path462"><path class="cls-21" d="M3237.53,960.32,3258,1383l-31.48,1.53L3220.82,1267l11.6-.57-14.76-305.09,19.87-1"/></g><g id="g464"><path id="path466" class="cls-22" d="M3083.45,240.76l55.55,1148-13,.63-55.55-1148,13-.63"/></g><g id="path468"><path class="cls-20" d="M3205.18,943.66l21.33,440.87-50.26,2.45-21.33-440.87,50.26-2.45"/></g><g id="g470"><path id="path472" class="cls-20" d="M3171,236.49l34.21,707.17-50.25,2.45-34.22-707.17,50.26-2.45"/></g><g id="path474"><path class="cls-21" d="M3202.17,881.51l3,62.15-100.53,4.9-3-62.16,100.52-4.89"/></g><g id="g476"><path id="path478" class="cls-21" d="M3173.13,281.22l1,21.14-100.52,4.89-1-21.14,100.52-4.89"/></g><g id="path492"><path class="cls-20" d="M3237.57,1368.69l-11.8.58L3220.82,1267l11.79-.58,5,102.32"/></g><path class="cls-15" d="M3395.44,159.62c-57.51,20.75-101.48,100.95-115.9,155.71-22.93,87.05,6.66,168.91-1.49,254.72-13.52,142-102.71,278.06-88.15,421.59,9.61,94.86,72.43,155.95,170.19,126.18,14.26-4.33,19.93-41.73,22-52.17,13.07-67.41,60.67-146.68,93-206.05,98.28-180.6,263-331.83,306-538.6,37.63-181-7.38-274-207.93-229"/><path class="cls-14" d="M3488.68,124.16l-93.24,35.46c-57.51,20.75-101.48,100.95-115.9,155.71-22.93,87.05,6.66,168.91-1.49,254.72-13.52,142-102.71,278.06-88.15,421.59,9.61,94.86,72.43,155.95,170.19,126.18a12.23,12.23,0,0,0,4.21-2.37c-1.1,0-2.23-.06-3.36-.17-45.39-4.25-132.17-72.63-100.18-125.41,14.29-23.64,49.5-46.1,77.44-46.12,41.93,0,57.26-1.14,57-2.63-6.14-34.74-109-14.94-130.6-10.55-12.39,2.52-37.52-.94-40.14-16.37-7.87-46.54,31.85-120.33,49-161,21-49.79,35.67-102.74,62.24-150,12.42-22.12,74-34.38,74.41-40.71,1.35-22.23-57.53-8-68.63-34.82-9.28-22.46,10.71-72.64,19.08-92.58,27.58-65.48,43.58-134.8,72.32-200,12.8-29,20.7-60.06,38-87C3472.35,145.82,3480.75,134.22,3488.68,124.16Z"/><ellipse class="cls-23" cx="4537.54" cy="1202.6" rx="505.84" ry="189.98" transform="translate(-147.12 903.44) rotate(-11.19)"/><path class="cls-24" d="M4636.91,277.34c288.22,0,522.2,100.62,522.2,224.55s-53.33,693.49-522.17,692.27c-543.71-1.36-522.2-568.34-522.2-692.27S4348.72,277.34,4636.91,277.34Z"/><path class="cls-25" d="M5158,538.64c-9.74,172.75-88.87,656.63-521,655.55-128.71-.35-225.73-32.35-298.92-82.72,64.51,17.42,150.29,18.4,208.55-11.78,57.07-29.54,104.07-95.77,126.52-154.72,18.08-47.52,26.07-88.41,61.56-127.54,25.07-27.66,59.1-43.38,90.85-61.62,94.88-54.53,198.34-86.8,279.77-163.43C5120.45,578.08,5140.9,559.42,5158,538.64Z"/><ellipse class="cls-26" cx="4636.91" cy="501.89" rx="522.19" ry="224.55"/><ellipse class="cls-27" cx="4635.67" cy="490.91" rx="505.54" ry="195.35"/><path class="cls-28" d="M4162.46,559.74c67.26-77.4,256.6-133.23,479.38-133.23,216.34,0,401.09,52.63,473.23,126.53-67.28,77.4-256.6,133.2-479.38,133.2C4419.35,686.24,4234.6,633.62,4162.46,559.74Z"/><path class="cls-29" d="M4171.25,550.42c73.88-72.53,256.84-123.91,470.59-123.91,15.88,0,31.61.29,47.1.85a918.61,918.61,0,0,0-101.11,30.57c-25.52,9.32-52.62,19.57-74.6,35.82-5.3,3.92-16.06,13.29-12,21.68,10.63,21.78,62.93,24.56,83,27.66,85,13.08,168.92,7.76,254.52,10.51,25.94.85,55.41,2,79.16,13.15,8.49,4,23.32,8.87,19.63,21.37-6.34,21.46-48.55,29-66.31,34-77.47,22-152.67,8.68-231.27,14.43-21.32,1.56-42.54,7.6-63.25,12.55-3.22.76-20,3.14-16,10.77,7.49,14.29,67.84,15.22,82,15.8,61,2.46,121.48-1.14,182.09-3.6-58.42,9.13-122.3,14.16-189.16,14.16-209.34,0-389.14-49.26-465.87-119.41A103.19,103.19,0,0,1,4171.25,550.42Z"/><path class="cls-16" d="M464,29.21c18.72,9.17,21.11,44.05,29.62,61.43,29.24,59.76,66.4,119,89.36,181.17,35.4,96.05-11.48,124.89,77,218.45,28.17,29.8,45.89,70.82,74.5,101.47.82.89,8,7.21,8.86,6.68,4.71-2.95,28.27-122.23,33.42-135.76,26.93-70.71,82.15-130.69,147.45-168.2,91.37-52.47,219.46-69.1,317.63-32.11,38.85,14.66,69,50.09,111.85,54.32.14,0,64.59-88.24,84-132.7,9.31-21.27-10.38-44-16.3-63.47C1392,23.94,1359.53-38,1256.69-56.65,1053.08-93.46,605-86,421.39,13.64"/><path class="cls-5" d="M689.14,647.33C658.39,570.41,581.7,514.54,550.59,435c-8.76-22.34-19.55-178.52-24.72-215.64-4-29.24-43.67-93-35.32-119.61,5.2-16.51,33.58-27.2,45.45-38.22C652.75-47.09,778.61-100.2,938.17-100.2c142.6,0,289.61-14.34,424.2,44.43,41.35,18,34.25,48.25,46.69,84.43,34.6,100.53,75.57,205.37,26,312.94-14.18,30.76-38.4,55.62-54.65,85.23"/><path class="cls-18" d="M681.41,628.68C662.14,632.25,654,595.07,649,582.2c-19.88-50.32-74.83-104.7-70.15-161.67,4.1-49.88,23.92-100.45,38.24-147.92,12.83-42.56,17.73-87,37.36-127.43C674.55,103.67,818.67,52.27,857.84,44c95.11-20.19,193-22.48,289.83-19.72,168.7,4.81,277-3.17,306.51,195.12,4.41,29.69-9.36,57.39-15.88,86.5-2.12,9.36-35,153.44-40.88,158-19.28,14.83-69.41-2.15-93.11,3.35-44.1,10.21-84.71,32.2-128.59,43.55-30.45,7.87-63,10.49-93.93,16.13"/><path class="cls-15" d="M1182,63.82c-4.66-2.29-6.61-8.76-10.93-11.79-6-4.26-58.86-7.07-70.09-9.06C893.9,6.51,791.39,107,691,280.42c-26.79,46.26-24.23,109.12-29.65,160.79-15,143.4-60.21,256.77-.94,404,11.84,29.47,42.73,53.77,60.9,79.15,48.64,67.86,100.09,134.64,159.28,193.71,6.94,6.9,71.39,76.28,79.12,73.32,23.9-9.08,45.21-27.36,68.38-39.27,44.11-22.64,103.54-34.74,151.53-45.73,14.53-3.32,30.11-4,45-5.47,24.17-2.35,147.23-3.4,163.17-34.36,43-83.51-7.49-222.79-21.31-308C1357,700.24,1354.74,639,1334.65,583c-44.71-124.66-140.21-219.61-206.42-331.91-15.5-26.26-25-56.09-37.71-83.62"/><path class="cls-14" d="M1367.6,765.61c-.41-2.4-.82-4.72-1.21-7C1357,700.24,1354.74,639,1334.65,583c-44.71-124.66-140.21-219.61-206.42-331.91-11.81-20-20.17-42.11-29.09-63.68-1.3-1.24-2.62-2.49-3.94-3.76L958.54,142.89c-14.81,17.48-17.2,37.81-21.69,59.68-3.08,14.89-11.4,28.89-13.79,44-8.87,55.7,15.5,112.21,41.76,160.13,7.24,13.22,56.27,105.83,42.62,119-12.39,11.93-42.29,12.07-58.17,13.51-48.84,4.44-94.62,10.46-144,10.46-15.3,0-45.28-7.54-59.32.36-1.54.89,17.29,1.36,34.9,4.39,25.74,4.42,50.88,7.79,77.14,6.85,78.27-2.84,161.3-14.05,239.26-4.39,12.83,1.6,61.5,2.18,64.11,24.2,1,8.28-33.06,10.66-38.43,11-43.44,2.49-87.79.44-131.17,4.06-3.64.3-45.15,3.15-45.65,7.37-4.37,38.81,185.72,9.78,86.61,43.31-8.75,2.95-17.92,7.21-26.92,9.22-25,5.58-51.59,3.48-77.06,5.8-54.23,5-108.52,24.5-158.35,45.65C736.41,721.81,703.73,736,704,736.7c8.09,21.87,92.69,11.26,111.57,5.74,7-2,27.84-13,35-7,36.07,30.32,61.06,128.28,88.43,171.92,20.89,33.3,53.93,71.69,90.38,88.59,53.73,24.94,173.07,31.13,229.87,18.54,89.91-19.92,104.88-158.5,107.94-231.36C1367.44,777.27,1367.57,771.41,1367.6,765.61Z"/><g id="path2612"><path class="cls-30" d="M1268.57,1920.38l707-1189.89a5,5,0,0,0-3.73-7.39l-573.39-56L676.4,1823.7l592.17,96.68"/></g><g id="path26121"><path class="cls-31" d="M1257.63,1880.47l717.95-1150a5,5,0,0,0-3.73-7.39l-573.39-56L676.4,1823.7l581.23,56.77"/></g><g id="path2616"><path class="cls-32" d="M1237.2,1852.62l691.68-1107.9-510-49.78L727.24,1802.83l510,49.79"/></g><ellipse class="cls-31" cx="1798.32" cy="853.84" rx="77.68" ry="28.56" transform="translate(65.09 1833.09) rotate(-54.86)"/><ellipse class="cls-31" cx="1258.98" cy="1712.7" rx="77.68" ry="28.56" transform="translate(-866.21 1756.59) rotate(-54.86)"/><g id="path2620"><path class="cls-31" d="M967,1632.34c24-38.45,25.56-75,9-102.11L1331.47,960.8c49.83-20.69,95-55,120.34-95.67l76.61-122.75,250.5,24.44-76.66,122.77c-24.68,39.53-25.69,77.15-7.57,104.47l-358.1,573.6c-44.94,21-84.85,52.86-108.16,90.19L1135.93,1806,874.5,1780.48,967,1632.34"/></g><g id="path2624"><path class="cls-32" d="M1235.07,1422.66c117.37,11.44,254.14-45.92,305.46-128.14s-2.23-158.14-119.56-169.61-254.08,45.94-305.42,128.12,2.19,158.17,119.52,169.63"/></g><g id="path2628"><path class="cls-32" d="M1491.66,1018.28c57.67,5.65,129-29.15,159.32-77.71s8.17-92.48-49.55-98.11-129,29.19-159.32,77.71-8.12,92.46,49.55,98.11"/></g><path class="cls-31" d="M1467.82,926a27.53,27.53,0,0,0-2.11,5.69,16.11,16.11,0,0,0,.75,10.81,18.28,18.28,0,0,0,7.77,8,35.53,35.53,0,0,0,13.89,4.17l16-20.81q-6.83-1-7.73-4.77t2.43-8.09a22.62,22.62,0,0,1,10.33-7.55,25.36,25.36,0,0,1,11.72-1.74,12.07,12.07,0,0,1,6.22,2.36q2.48,1.92.59,8.55l-3.55,13.74q-3.6,13,3,18.85t18.74,7.19a62.24,62.24,0,0,0,17.92-.68,89,89,0,0,0,18.29-5.35,82.09,82.09,0,0,0,16.88-9.4,69.89,69.89,0,0,0,6.49-5.31l15.38,1.74,11.7-15.21-15.28-1.73q4.43-8.82,2-16.09a16.77,16.77,0,0,0-7.11-8.82q-5.49-3.69-15.54-5.06l-16,20.81a16.42,16.42,0,0,1,8.06,4.33q2.92,3-1.91,9.33a29.1,29.1,0,0,1-10.49,8.13,24.59,24.59,0,0,1-13.8,2.56c-3.77-.43-6.38-1.59-7.85-3.49s-1.57-5.05-.32-9.46l3.33-11.17q3.17-11-1.79-18t-18.67-8.6a60.24,60.24,0,0,0-18,.79,81.87,81.87,0,0,0-18.28,5.7,76.54,76.54,0,0,0-16,9.26c-1.78,1.35-3.46,2.74-5,4.19l-19.22-2.18-11.7,15.21Z"/><g id="path26281"><path class="cls-32" d="M1078.31,1656.07c57.67,5.65,129-29.16,159.31-77.72s8.18-92.48-49.55-98.11-129,29.2-159.31,77.72-8.12,92.46,49.55,98.11"/></g><path class="cls-31" d="M1054.48,1563.78a27.53,27.53,0,0,0-2.11,5.69,16.11,16.11,0,0,0,.75,10.81,18.28,18.28,0,0,0,7.77,8,35.48,35.48,0,0,0,13.89,4.17l16-20.81q-6.82-1-7.73-4.77t2.42-8.09a22.7,22.7,0,0,1,10.34-7.55,25.36,25.36,0,0,1,11.72-1.74,12.07,12.07,0,0,1,6.22,2.36q2.46,1.92.59,8.55l-3.56,13.74q-3.58,13,3,18.85t18.74,7.19a62.16,62.16,0,0,0,17.91-.68,88.89,88.89,0,0,0,18.3-5.35,82.56,82.56,0,0,0,16.88-9.4,69.89,69.89,0,0,0,6.49-5.31l15.38,1.74,11.7-15.21-15.28-1.73q4.42-8.84,2-16.09a16.77,16.77,0,0,0-7.11-8.82q-5.49-3.69-15.54-5.06l-16,20.81a16.42,16.42,0,0,1,8.06,4.33q2.92,3-1.91,9.33a29.21,29.21,0,0,1-10.49,8.13,24.59,24.59,0,0,1-13.8,2.56c-3.77-.43-6.38-1.59-7.85-3.49s-1.57-5.05-.32-9.46l3.33-11.17q3.17-11-1.79-18t-18.67-8.59a60.55,60.55,0,0,0-18,.78,82.42,82.42,0,0,0-18.28,5.71,76.29,76.29,0,0,0-16,9.26c-1.78,1.35-3.46,2.74-5,4.19l-19.23-2.18-11.69,15.21Z"/><g id="path26122"><path class="cls-30" d="M1015.49,1886.45l872.3-1064.62c2.23-2.6.59-7.64-3-9.07L1300.28,578.54,416.46,1602.77l599,283.68"/></g><g id="path26123"><path class="cls-31" d="M1009,1840.22,1887.79,821.83c2.23-2.6.59-7.64-3-9.07L1300.28,578.54,416.46,1602.77,1009,1840.22"/></g><g id="path26161"><path class="cls-32" d="M991.29,1804.08,1837.92,823,1318,614.64,471.41,1595.76l519.88,208.32"/></g><ellipse class="cls-31" cx="1690.15" cy="900.64" rx="76.74" ry="33.11" transform="translate(-127.86 1502.79) rotate(-46.38)"/><ellipse class="cls-31" cx="1030.59" cy="1660.27" rx="76.74" ry="33.11" transform="translate(-882.29 1260.89) rotate(-46.38)"/><g id="path26201"><path class="cls-31" d="M739.18,1485.25c29.33-34.06,35.39-72.88,21.56-107l435.11-504.29c53.88-7.11,104.54-30.33,135.61-66.32l93.78-108.71,255.38,102.31-93.83,108.72c-30.21,35-35.78,75.14-20.38,110l-438.33,508c-48.87,8.94-93.86,31.08-122.39,64.14L892.47,1723.25,626,1616.44l113.23-131.19"/></g><g id="path26241"><path class="cls-32" d="M1040.85,1341.2c119.66,47.92,267.6,27.77,330.42-45s16.73-170.69-102.88-218.63-267.54-27.74-330.37,45-16.78,170.71,102.83,218.65"/></g><g id="path26282"><path class="cls-32" d="M1354.13,984.34c58.79,23.58,136.56,7.82,173.64-35.19s19.56-96.94-39.29-120.52-136.54-7.77-173.64,35.19-19.5,96.94,39.29,120.52"/></g><path class="cls-31" d="M1340.65,877.88a25.23,25.23,0,0,0-2.86,5.48,18.4,18.4,0,0,0-.53,11.85,25.4,25.4,0,0,0,7,10.91,44.43,44.43,0,0,0,13.83,8.69l19-17.51c-4.62-2.11-7.08-4.6-7.41-7.47s.84-5.54,3.48-8a19,19,0,0,1,11.57-5,25.7,25.7,0,0,1,12.29,1.69,15.4,15.4,0,0,1,6.13,4.42q2.31,2.82-.42,9.37l-5.32,13.7q-5.26,12.91.87,21.19t18.45,13.41a66,66,0,0,0,18.56,4.71,83.2,83.2,0,0,0,19.51-.2,70.2,70.2,0,0,0,18.53-5,57.39,57.39,0,0,0,7.34-3.74l15.65,6.54,13.89-12.8-15.55-6.5q5.63-8.15,4-16.7-1-6-6.26-11.64T1477,885.19l-19,17.52a21.9,21.9,0,0,1,7.8,7.11q2.64,4.15-3.1,9.45a26,26,0,0,1-26.34,4.11q-5.74-2.42-7.67-6.13c-1.28-2.48-1-5.91.81-10.27l4.78-11q4.59-10.83.32-19.9t-18.22-14.91a64.18,64.18,0,0,0-18.66-4.62,76.3,76.3,0,0,0-19.53.59,64.93,64.93,0,0,0-17.66,5.09,56.92,56.92,0,0,0-5.71,3L1335.26,857l-13.9,12.8Z"/><g id="path26283"><path class="cls-32" d="M851.1,1544.54c58.79,23.58,136.56,7.82,173.64-35.19s19.56-96.94-39.29-120.52-136.54-7.77-173.64,35.19-19.5,96.94,39.29,120.52"/></g><path class="cls-31" d="M837.64,1438.09a25.28,25.28,0,0,0-2.87,5.48,18.47,18.47,0,0,0-.53,11.85,25.37,25.37,0,0,0,7.06,10.91,44.4,44.4,0,0,0,13.83,8.7l19-17.52q-6.92-3.16-7.4-7.47t3.47-8a19,19,0,0,1,11.57-5,25.68,25.68,0,0,1,12.29,1.69,15.36,15.36,0,0,1,6.14,4.43q2.31,2.82-.43,9.37l-5.31,13.69q-5.28,12.92.86,21.19t18.45,13.42a66.17,66.17,0,0,0,18.56,4.7,82.65,82.65,0,0,0,19.51-.2,70.38,70.38,0,0,0,18.54-5,56.77,56.77,0,0,0,7.34-3.74l15.64,6.54,13.9-12.8-15.55-6.49q5.63-8.16,4-16.71-1-6-6.26-11.63T974,1445.4l-19,17.52a21.82,21.82,0,0,1,7.8,7.11q2.65,4.15-3.09,9.45a26,26,0,0,1-26.34,4.11q-5.75-2.41-7.67-6.13t.8-10.27l4.79-11q4.58-10.82.31-19.9t-18.22-14.91a64,64,0,0,0-18.65-4.62,76.36,76.36,0,0,0-19.54.59,64.86,64.86,0,0,0-17.65,5.09,56,56,0,0,0-5.72,3l-19.56-8.18L818.35,1430Z"/><g id="path26124"><path class="cls-30" d="M893.59,1660.93,1906.32,813.46c2.59-2.05,1-6.65-2.84-8.27l-634.31-265L245.62,1351l648,310"/></g><g id="path26125"><path class="cls-31" d="M888.59,1619.64,1906.32,813.46c2.59-2.05,1-6.65-2.84-8.27l-634.31-265L245.62,1351l643,268.69"/></g><g id="path26162"><path class="cls-32" d="M870.73,1586.08l980.49-776.67L1287.08,573.68,306.59,1350.36l564.14,235.72"/></g><ellipse class="cls-31" cx="1684.47" cy="862.73" rx="75.42" ry="32.85" transform="translate(-200.31 1034.09) rotate(-32.32)"/><ellipse class="cls-31" cx="920.84" cy="1463.65" rx="75.42" ry="32.85" transform="matrix(0.85, -0.53, 0.53, 0.85, -639.81, 718.95)"/><g id="path26202"><path class="cls-31" d="M607.35,1280.32c34-27,42.48-60.47,28.81-91.91l503.91-399.2c59.8-.8,116.82-16.09,152.8-44.58l108.61-86,277.11,115.77-108.66,86.07c-35,27.71-43,62.42-27.65,94.63l-507.62,402.12c-54.36,2.91-105.07,17.82-138.11,44L765.43,1505,476.22,1384.17l131.13-103.85"/></g><g id="path26242"><path class="cls-32" d="M947.1,1184.24c129.85,54.24,294.1,51.5,366.85-6.14s26.46-148.34-103.34-202.59-294-51.46-366.79,6.14S817.31,1130,947.1,1184.24"/></g><g id="path26284"><path class="cls-32" d="M1309.62,902.29C1373.41,929,1460,923,1502.94,888.93s26.14-83.23-37.72-109.91-150.37-20.65-193.33,13.36-26.07,83.23,37.73,109.91"/></g><path class="cls-31" d="M1299.72,807.35a19.79,19.79,0,0,0-3.41,4.53,13,13,0,0,0-1.14,10.36q1.62,5.22,7.27,10.3a54.74,54.74,0,0,0,14.86,9l21.81-13.47c-5-2.32-7.6-4.75-7.82-7.32s1.18-4.77,4.21-6.65a23.28,23.28,0,0,1,13-3.2,35.7,35.7,0,0,1,13.49,2.73,18.42,18.42,0,0,1,6.57,4.51q2.42,2.72-.91,8.19l-6.51,11.5q-6.42,10.82,0,18.71t19.74,13.66a91.08,91.08,0,0,0,20.27,6,116.88,116.88,0,0,0,21.54,1.8,92.15,92.15,0,0,0,20.7-2.51,68.51,68.51,0,0,0,8.28-2.54l17,7.33,15.94-9.84-16.86-7.29q6.58-6.59,5.16-14.27-.87-5.38-6.37-10.87t-16.55-10.49l-21.81,13.47a24.34,24.34,0,0,1,8.28,7q2.71,3.92-3.86,8-5,3.09-13.28,3.68a33.64,33.64,0,0,1-16-2.73q-6.24-2.7-8.18-6.16t1.37-9l5.79-9.19q5.57-9,1.28-17.45t-19.41-15a88.64,88.64,0,0,0-20.38-5.94,105.84,105.84,0,0,0-21.59-1.46,84.58,84.58,0,0,0-19.73,2.68c-2.24.6-4.39,1.27-6.44,2l-21.21-9.17-15.94,9.84Z"/><g id="path26285"><path class="cls-32" d="M728.12,1343.77c63.8,26.67,150.38,20.69,193.33-13.36s26.13-83.23-37.73-109.91-150.36-20.65-193.33,13.36-26.06,83.23,37.73,109.91"/></g><path class="cls-31" d="M718.24,1248.84a19.79,19.79,0,0,0-3.41,4.53,13,13,0,0,0-1.14,10.36q1.62,5.22,7.27,10.3a54.74,54.74,0,0,0,14.86,9l21.81-13.47q-7.49-3.48-7.82-7.32t4.21-6.65a23.28,23.28,0,0,1,13-3.2,35.7,35.7,0,0,1,13.49,2.73,18.42,18.42,0,0,1,6.57,4.51q2.42,2.71-.91,8.19l-6.51,11.5q-6.42,10.82,0,18.71t19.74,13.66a91.08,91.08,0,0,0,20.27,6,116.88,116.88,0,0,0,21.54,1.8,92.73,92.73,0,0,0,20.7-2.51,67.42,67.42,0,0,0,8.28-2.54l17,7.33,15.94-9.84-16.86-7.29q6.59-6.59,5.16-14.28-.87-5.39-6.37-10.86t-16.55-10.49l-21.81,13.47a24.34,24.34,0,0,1,8.28,7q2.72,3.92-3.86,8-5,3.09-13.28,3.68a33.52,33.52,0,0,1-16-2.74q-6.24-2.68-8.18-6.16t1.37-8.94l5.79-9.19q5.57-9,1.28-17.45t-19.41-15a88.14,88.14,0,0,0-20.38-5.94,105.84,105.84,0,0,0-21.59-1.46,84.58,84.58,0,0,0-19.73,2.68q-3.36.89-6.44,2L713.27,1230l-15.94,9.84Z"/><path id="path26126" class="cls-33" d="M1366,580.6l-96.82-40.43L1117.33,660.42c12.31,19.91,31.39,35.76,42.07,60.23,31.44,71.92,31.49,169.57,110.72,211.44a452,452,0,0,0,42.53,20C1357.58,969.9,1496.8,982,1507.81,908c6.14-41.48-24.64-99.06-41.32-135.1-21.94-47.48-41.33-94.59-66.6-140.49C1390,614.35,1376.93,598,1366,580.6Z"/><path class="cls-14" d="M1046.61,52.36c-8.64-32.95-67.83,23.47-73.09,32C945.44,129.44,921,208.67,933.9,262.56,964.63,390.84,1089.22,436,1167.79,529.32c25,29.68,41.57,110,45.73,146.12,8.51,73.93,36.15,145.71,79.2,207.93,37.28,53.86,122.18,103.71,203,70.26,59.52-24.66-19.49-204.15-37.24-275.34-21.23-85.21-27.64-170.35-41.19-256.57-8.06-51.32-31.79-97.58-47.62-146.43-21.48-66.26-37.36-138.59-92.89-185.84-32.29-27.48-71.9-42.64-109.4-61.09"/><path class="cls-15" d="M930.6,220.19c2.34-47.61,21.58-101.58,42.92-135.88,5.26-8.48,64.45-64.9,73.09-31.95l120.77-24c37.5,18.45,77.11,33.61,109.4,61.09,55.53,47.25,71.41,119.58,92.89,185.84,15.83,48.85,39.56,95.11,47.62,146.43,13.55,86.22,20,171.36,41.19,256.57,12.71,51,56.87,157.58,59,223-24.14,32.7-65.11,36.84-80.75,25.19-35.56-26.54-36.88-50.52-52.22-92.14-5.61-15.24-17.86-49.43-8.12-65.92,8.09-13.62,78.79-19.72,78.18-33.2-.55-12.67-81.26,8-90.54,29.2-11.89,27.2,21.2,99.06,36,122.07,4.19,6.46,6.08,24.49-7.4,20.93-18.48-4.86-30.51-20.6-45.7-31.9-89.78-66.61-64.09-140.82-85.15-240.36-8.67-40.95-46.86-64.7-49.2-89.26-2.23-23.66,13.74-41.75,29.82-56.61,5.56-5.14,22.79-15.63,19.57-25.74-4.65-14.58-38,24.14-49.33,27.95-20.15,6.79-50.9-13.62-65.3-24.09C1071.47,412.22,977.62,318.4,930.6,220.19Z"/><ellipse class="cls-23" cx="133.1" cy="2462.94" rx="524.81" ry="197.11" transform="translate(-475.44 72.65) rotate(-11.19)"/><path class="cls-25" d="M632.6,2171.76a46.27,46.27,0,0,0-26.09,88.71c13.69,4.58,34.74,2.77,48.86,2.77,71.26,0,133.51-17.28,189.85-63,18.62-15.13,38.9-28.45,56.86-44.38,57.74-51.25,120.29-143.44,142.9-236,16.78-68.77,11.72-137.51-26-193.32-46-68.13-132-62.42-196.22-29.93-77.59,39.19-128.07,94.11-165.13,172.52-14.16,29.94-30.09,61.88-28.8,96.07a46.12,46.12,0,1,0,92.17-3.43c-.71-19.31,12-36.06,20-53,27.76-58.72,65.19-100.19,123.28-129.55,13.05-6.59,27.92-12,42.62-13.59,13.39-1.46,27.18.19,35.72,12.8,23.22,34.38,23.08,77.06,12.73,119.38-18.06,74-68.22,147.73-114.4,188.7-16.94,15-36.19,27.47-53.79,41.77-39,31.64-82.46,42.41-131.79,42.41C649.49,2170.69,635.53,2171.57,632.6,2171.76Z"/><path class="cls-34" d="M942.27,1777.93c6.87,1.73,12.87,4.37,17.11,7.78,31.53,25.34,34,87.58,31.45,124.16-8.59,121.72-123.19,214.71-219.25,273.62-20.86,12.79-44.73,24.25-68.65,29.66a198.33,198.33,0,0,1-52.89,4.94c-27.43-1.26-48.49-14.17-62.72-33.07a46.12,46.12,0,0,1,45.28-13.26c2.93-.19,16.89-1.07,22.77-1.07,49.33,0,92.81-10.77,131.79-42.41,17.6-14.3,36.85-26.72,53.79-41.77,46.18-41,96.34-114.66,114.4-188.7,10.35-42.32,10.49-85-12.73-119.38ZM748.78,1893.28l-117.93,83.85A46.12,46.12,0,0,0,721,1961.75c-.71-19.31,12-36.06,20-53C743.52,1903.47,746.1,1898.31,748.78,1893.28Z"/><path class="cls-24" d="M236.21,1503c299,0,541.78,104.39,541.78,233s-55.33,719.5-541.75,718.23c-564.1-1.42-541.79-589.66-541.79-718.23S-62.79,1503,236.21,1503Z"/><path class="cls-25" d="M776.78,1774.09c-10.1,179.23-92.2,681.26-540.55,680.13-133.54-.36-234.2-33.56-310.14-85.82C-7,2386.47,82,2387.48,142.47,2356.18c59.21-30.65,108-99.37,131.26-160.53,18.76-49.29,27-91.73,63.87-132.32,26-28.7,61.32-45,94.25-63.93,98.45-56.58,205.78-90.05,290.27-169.56C737.88,1815,759.1,1795.65,776.78,1774.09Z"/><ellipse class="cls-26" cx="236.21" cy="1735.96" rx="541.77" ry="232.97"/><ellipse class="cls-27" cx="234.92" cy="1724.56" rx="524.5" ry="202.68"/><path class="cls-28" d="M-256,1796c69.78-80.31,266.23-138.23,497.36-138.23,224.45,0,416.13,54.6,491,131.28-69.81,80.3-266.23,138.19-497.36,138.19C10.49,1927.22-181.19,1872.63-256,1796Z"/><path class="cls-29" d="M-246.92,1786.31c76.65-75.25,266.47-128.56,488.24-128.56,16.48,0,32.8.31,48.87.88a954.4,954.4,0,0,0-104.91,31.72c-26.47,9.67-54.58,20.3-77.39,37.16-5.5,4.07-16.67,13.79-12.43,22.49,11,22.61,65.29,25.49,86.1,28.7,88.23,13.57,175.26,8,264.06,10.91,26.91.87,57.49,2,82.13,13.65,8.81,4.17,24.2,9.2,20.37,22.16-6.57,22.27-50.37,30-68.8,35.29-80.37,22.82-158.39,9-239.94,15-22.12,1.62-44.13,7.88-65.62,13-3.34.8-20.75,3.27-16.59,11.18,7.77,14.83,70.38,15.79,85.11,16.4,63.32,2.55,126-1.18,188.92-3.74-60.61,9.48-126.89,14.69-196.26,14.69-217.2,0-403.73-51.1-483.34-123.88A107.27,107.27,0,0,1-246.92,1786.31Z"/></g></g></svg>