<?xml version="1.0" encoding="UTF-8" standalone="no"?><!DOCTYPE svg PUBLIC "-//W3C//DTD SVG 1.1//EN" "http://www.w3.org/Graphics/SVG/1.1/DTD/svg11.dtd"><svg width="4000px" height="2500px" version="1.1" xmlns="http://www.w3.org/2000/svg" xmlns:xlink="http://www.w3.org/1999/xlink" xml:space="preserve" xmlns:serif="http://www.serif.com/" style="fill-rule:evenodd;clip-rule:evenodd;stroke-linejoin:round;stroke-miterlimit:2;"><g id="c99"></g><g transform="matrix(2.2689,0,0,2.2689,-4581.63,-2928.61)"><g id="c69"><g><g transform="matrix(0.441052,0,0,0.441052,2020.05,1290.7)"><rect x="111.817" y="218.725" width="3805.79" height="2107.56" style="fill:rgb(174,211,240);"/></g><path d="M2377.3,2316.71C2379.64,2311.33 2382.13,2306.09 2384.8,2301C2430.93,2212.82 2550.23,2146.78 2640.74,2116.17C2732.03,2085.3 2857.92,2079.42 2951.22,2103.61C3019.15,2121.22 3088.91,2131.97 3156.35,2150.87C3301.94,2191.68 3485.19,2276.45 3639.2,2232.12C3674.81,2221.87 3715.54,2205.74 3747.92,2183.79L3747.92,2316.71L2377.3,2316.71ZM3747.92,1581.06C3697.84,1540.21 3635.46,1523.62 3572.34,1511.82C3276.96,1456.58 3070.39,1572.75 2786.14,1605.58C2563.89,1631.24 2347.66,1539.08 2189.12,1387.17L3747.92,1387.17L3747.92,1581.06Z" style="fill:rgb(195,220,243);"/></g><g transform="matrix(0.441052,0,0,0.441052,2020.05,1290.7)"><rect x="111.817" y="218.725" width="3805.79" height="2107.56" style="fill:none;"/><clipPath id="_clip1"><rect x="111.817" y="218.725" width="3805.79" height="2107.56"/></clipPath><g clip-path="url(#_clip1)"><g transform="matrix(2.03814,0,0,2.26731,-4019.18,-2926.41)"><path d="M2447.78,1356.84C2445.95,1404.31 2455.42,1504.17 2495.29,1536.09C2564.66,1591.61 2811.43,1645.39 2901.65,1659.03C2997.45,1673.51 3539.72,1728.03 3620.29,1690.23C3652.15,1675.29 3699.01,1508.26 3697.61,1483.34C3686.5,1284.97 3754.2,1322.65 3555.27,1304.52C3520.24,1301.33 3486.09,1294.7 3450.89,1292.64C3331.71,1285.64 3211.23,1279.84 3091.81,1279.74C2892.76,1279.57 2688.16,1285.2 2490.2,1306.69" style="fill:rgb(68,174,158);"/></g><g transform="matrix(2.26731,0,0,2.26731,-4580.08,-2926.41)"><path d="M2496.38,1376.64C2493.71,1382.62 2539.02,1439.57 2552.54,1440.59C2607.91,1444.79 2659.05,1467.46 2714.64,1472.86C2768.71,1478.1 2825.49,1466.9 2878.41,1483.96C2882.22,1485.19 2873.04,1478 2869.97,1475.43C2863.03,1469.64 2859.56,1466.65 2859.15,1457.2C2858.42,1440 2879.05,1425.36 2876.64,1404.16C2875.79,1396.77 2863.48,1349.42 2871.17,1346.7C2880.68,1343.33 2893.22,1349.39 2903.19,1349.57C2980.24,1350.97 2884.25,1421.41 2923.15,1452.23C2924.53,1453.32 2926.58,1453.56 2928.28,1453.76C2946.51,1455.84 2967.38,1461.29 2985.7,1461.57C2986.07,1461.58 2990.47,1461.58 2990.43,1461.77C2989.41,1467.03 2972.03,1476.34 2988.71,1478.69C3015.7,1482.49 3044,1479.08 3071.19,1481.83C3092.7,1484.01 3197.67,1472.25 3211.29,1461.1C3222.19,1452.16 3203.86,1430.14 3211.3,1421.54C3227.39,1402.94 3257.57,1391.37 3277.85,1377.68C3300.18,1362.61 3323.35,1342 3349.8,1334.43C3400.14,1320.03 3444.59,1425.27 3447.94,1460.18C3449.63,1477.91 3435.52,1490.96 3425.3,1503.66C3371.64,1570.41 3333.86,1574.2 3252.33,1593.66C3177.56,1611.5 3111.3,1604.02 3035.78,1600.37C2995.11,1598.41 2954.13,1602.47 2913.5,1600.12C2785.02,1592.71 2654.14,1548.47 2541.86,1489.52" style="fill:rgb(53,137,124);"/></g><g transform="matrix(2.26731,0,0,2.26731,-4580.08,-2926.41)"><path d="M3163.06,1442.3C3137.58,1425.82 3067.4,1427.18 3037.51,1427.05C3025.39,1427 3013.67,1425.04 3001.73,1423.29C2996.83,1422.56 2991.86,1422.07 2986.99,1421.3C2984.13,1420.85 2975.89,1420.13 2978.32,1421.69C3005.08,1438.76 3108.86,1456.96 3147.84,1453.31C3165.93,1451.61 3187.15,1444.6 3204.7,1450.53" style="fill:rgb(53,137,124);"/></g><g transform="matrix(2.26731,0,0,2.26731,-4580.08,-2926.41)"><path d="M2793.99,1439.38C2744.12,1441.33 2691.14,1425.98 2641.32,1436.11C2640.25,1436.33 2626.8,1438.33 2626.61,1439.24C2625.91,1442.66 2645.77,1445.55 2647.67,1445.79C2658.88,1447.23 2670.11,1448.17 2681.31,1449.85C2720.67,1455.77 2766.11,1476.1 2806.33,1469.07C2816.34,1467.32 2877.44,1447.13 2826.3,1446" style="fill:rgb(53,137,124);"/></g><g transform="matrix(2.26731,0,0,2.26731,-4580.08,-2926.41)"><path d="M2033.29,1438.13L3796.52,1571.93L3786.05,2400.07L2044.54,2361.12L2033.29,1438.13Z" style="fill:rgb(228,239,250);"/></g><g transform="matrix(1.14134,0,-0.217981,1.16746,-63.6107,-428.149)"><g transform="matrix(2.26731,0,0,2.26731,-4580.08,-2926.41)"><path d="M2857.9,1979.76L2850.78,2335.68L2904.68,2322.11L2857.9,1979.76Z" style="fill-opacity:0.13;"/></g><g transform="matrix(2.26731,0,0,2.26731,-4580.08,-2926.41)"><path d="M3410.07,1968.99L2857.44,1977.96L2857.44,2482.69L3560.03,2437.24L3410.07,1968.99Z" style="fill:rgb(249,251,254);"/></g><g transform="matrix(2.14738,0,0,2.13272,-4201.64,-2627.56)"><path d="M3410.07,1968.99L2857.44,1977.96L2857.44,2482.69L3560.03,2437.24L3410.07,1968.99Z" style="fill:rgb(236,243,251);"/></g><g transform="matrix(2.2668,-0.0477709,0.0300028,1.42368,-4650.37,-1181.12)"><rect x="2907.51" y="2117.5" width="197.004" height="8.123" style="fill:rgb(185,214,242);"/></g><g transform="matrix(3.15211,-0.066428,0.0338256,1.60508,-7230.54,-1453.9)"><rect x="2907.51" y="2117.5" width="197.004" height="8.123" style="fill:rgb(185,214,242);"/></g><g transform="matrix(4.38319,-0.0923719,0.0278103,1.31964,-10786.6,-587.48)"><rect x="2907.51" y="2117.5" width="197.004" height="8.123" style="fill:rgb(185,214,242);"/></g></g><g transform="matrix(1.14134,0,0,1.16746,-386.888,-436.15)"><g transform="matrix(2.26731,0,0,2.26731,-4580.08,-2926.41)"><path d="M2857.9,1979.76L2850.78,2335.68L2904.68,2322.11L2857.9,1979.76Z" style="fill-opacity:0.13;"/></g><g transform="matrix(2.26731,0,0,2.26731,-4580.08,-2926.41)"><path d="M3410.07,1968.99L2857.44,1977.96L2857.44,2482.69L3560.03,2437.24L3410.07,1968.99Z" style="fill:rgb(249,251,254);"/></g><g transform="matrix(2.14738,0,0,2.13272,-4201.64,-2627.56)"><path d="M3410.07,1968.99L2857.44,1977.96L2857.44,2482.69L3560.03,2437.24L3410.07,1968.99Z" style="fill:rgb(236,243,251);"/></g><g transform="matrix(2.2668,-0.0477709,0.0300028,1.42368,-4650.37,-1181.12)"><rect x="2907.51" y="2117.5" width="197.004" height="8.123" style="fill:rgb(185,214,242);"/></g><g transform="matrix(3.15211,-0.066428,0.0338256,1.60508,-7230.54,-1453.9)"><rect x="2907.51" y="2117.5" width="197.004" height="8.123" style="fill:rgb(185,214,242);"/></g><g transform="matrix(4.38319,-0.0923719,0.0278103,1.31964,-10786.6,-587.48)"><rect x="2907.51" y="2117.5" width="197.004" height="8.123" style="fill:rgb(185,214,242);"/></g></g><g transform="matrix(2.26731,0,0,2.26731,-4580.08,-2926.41)"><path d="M2491.51,1474.67L2194.48,1940.51L2294.21,1972.01L2210.43,2083.78L2568.4,2137.03L2779.15,1688.08L2612.16,1651.35C2633.91,1601.3 2641.97,1545.68 2630.47,1482.09L2491.51,1474.67ZM3170.13,1759.34C3178.85,1774.94 3147.92,1922.22 3155.05,1931.39C3168.33,1948.48 3152.99,1996.57 3205.44,2023.91C3257.89,2051.26 3342.14,2070.96 3342.14,2070.96L3457.81,1980.15L3551.23,1867.58L3576.15,1704.61L3664.78,1559.01L3586.69,1554.63L3170.13,1759.34Z" style="fill-opacity:0.17;"/></g><g transform="matrix(2.32824,0,0,2.32824,-4894.55,-3131.78)"><path d="M3642.21,2353.28C3640.3,2329.84 3625.93,2268.68 3609.4,2251.42C3586.97,2228 3552.86,2213.17 3525.35,2196.66C3487.28,2173.8 3455.49,2142.49 3415.48,2122.49C3387.32,2108.43 3318.96,2103.55 3285.99,2099.43C3251.56,2095.12 3217.45,2093.14 3182.89,2090.23C3171.55,2089.28 3150.09,2084.25 3139.87,2092.12C3123.72,2104.55 3135.62,2134.98 3161.18,2146.18C3188.49,2158.15 3202.15,2164.81 3250.3,2171C3252.36,2171.27 3282.62,2189.49 3282.62,2189.49C3282.62,2189.49 3243.08,2188.51 3238.78,2188.51C3200.86,2188.51 3167.66,2182.51 3135.61,2205.99C3124.8,2213.91 3114.15,2243.86 3123.14,2256.09C3126.05,2260.05 3134.33,2262.62 3136.18,2266.67C3136.64,2267.68 3129,2268.82 3128.44,2268.91C3124.08,2269.61 3120.28,2271.96 3115.91,2272.72C3107.14,2274.25 3100.34,2285.39 3098.42,2293.6C3096.18,2303.19 3103.58,2313.53 3112.19,2317.64C3114.43,2318.71 3123.86,2320.66 3124.47,2323.62C3124.5,2323.76 3114.71,2326.59 3113.87,2327.29C3107.24,2332.82 3104.74,2341.95 3105.8,2350.39C3109.26,2377.8 3175.24,2382.55 3193.01,2383.55C3200.55,2383.97 3208.12,2383.68 3215.66,2384.04C3242.38,2385.34 3268.89,2386.45 3295.63,2385.1C3353.29,2382.19 3412.22,2389.02 3469.1,2397.47" style="fill:rgb(255,199,135);fill-opacity:0.99;"/><path d="M3136.21,2122.62C3140.85,2132.11 3149.62,2141.12 3161.18,2146.18C3188.49,2158.15 3202.15,2164.81 3250.3,2171C3252.36,2171.27 3282.62,2189.49 3282.62,2189.49L3280.93,2189.45C3288.95,2192.08 3296.85,2195.46 3304.61,2199.9C3315.35,2206.06 3328.77,2210.74 3340.56,2214.38C3342.78,2215.07 3352.41,2214.9 3351.27,2218.75C3348.72,2227.39 3333.59,2232.73 3326.89,2237.15C3297.98,2256.2 3282.86,2251.42 3249.2,2245.18C3234.23,2242.4 3220.66,2239.64 3206.64,2234.09C3201.16,2231.92 3200.66,2205.22 3192.73,2205.38C3188.75,2205.47 3192.47,2217.03 3192.98,2218.76C3195.43,2227.12 3205.85,2250.46 3192.66,2254.81C3176.27,2260.23 3148.99,2253.49 3132.98,2250.36C3131.24,2250.01 3125.03,2247.47 3119.92,2246.65C3120.28,2250.31 3121.3,2253.58 3123.14,2256.09C3126.05,2260.05 3134.33,2262.62 3136.18,2266.67C3136.27,2266.86 3136.08,2267.05 3135.7,2267.24C3141.61,2270.1 3147.79,2272.35 3154.27,2273.53C3193.41,2280.7 3233.11,2285.28 3271.76,2295.55C3290.03,2300.4 3306.88,2293.83 3303.79,2319.45C3303.43,2322.43 3304.42,2326.23 3302.77,2328.92C3300.62,2332.43 3283.61,2329.67 3279.93,2329.67C3264.33,2329.67 3248.79,2328.42 3233.27,2327.68C3225.49,2327.3 3216.7,2328.31 3209.83,2323.94C3201.85,2318.87 3206.25,2306.48 3206.26,2298.56C3206.26,2296.1 3206.08,2288.91 3202.95,2288.15C3200.2,2287.48 3200.26,2293.32 3200.18,2294.88C3199.76,2303.04 3200.49,2310.8 3196.72,2318.26C3192.57,2326.47 3175.28,2321.52 3169.01,2320.68C3151.49,2318.32 3131.99,2315.07 3115.35,2309.04C3107.91,2306.35 3099.07,2292.39 3098.73,2295.71C3097.67,2306.18 3105.01,2313.41 3114.27,2318.39C3117.35,2319.37 3122.3,2320.78 3123.95,2322.66C3128.13,2324.18 3132.27,2325.36 3135.86,2326.26C3152.08,2330.34 3168.7,2330.36 3184.97,2333.73C3197.09,2336.24 3208.91,2340.14 3221.03,2342.94C3238.15,2346.89 3256.45,2346.11 3273.8,2348.84C3288.6,2351.17 3304.34,2351.43 3318.82,2355.37C3320.36,2355.78 3330.64,2358.39 3330.05,2359.98C3328.27,2364.86 3315.56,2363.23 3312.27,2363.23C3296.14,2363.23 3280.09,2364.46 3263.97,2364.46C3252.41,2364.46 3220.6,2369.77 3211.95,2366.74C3205.61,2364.52 3202.15,2361.05 3198.93,2355.32C3197.83,2353.35 3197.67,2347.24 3194.38,2347.39C3192.33,2347.49 3192.95,2354.38 3192.75,2355.87C3192.03,2361.36 3189.22,2363.98 3185.13,2367.15C3180.73,2370.54 3151.59,2362.91 3146.84,2361.49C3138.72,2359.08 3120.61,2354.14 3107.33,2355.66C3117.99,2378.43 3176.45,2382.62 3193.01,2383.55C3200.55,2383.97 3208.12,2383.68 3215.66,2384.04C3242.38,2385.34 3268.89,2386.45 3295.63,2385.1C3353.29,2382.19 3412.22,2389.02 3469.1,2397.47L3559.99,2374.27C3559.37,2366.8 3558.41,2359.31 3557.89,2352.18C3555.83,2324.08 3543.63,2304.91 3534.03,2278.85C3528.48,2263.79 3520.44,2242.99 3509.61,2230.88C3494.88,2214.4 3457.62,2202.81 3437.88,2194.89C3405.64,2181.95 3371.47,2170.85 3337.62,2163.29C3323.92,2160.23 3308.26,2159.86 3294.26,2158.58C3264.26,2155.84 3234.18,2153.01 3204.21,2150.01C3188.2,2148.41 3165.12,2143.66 3152.08,2133.66C3146.6,2129.45 3141.72,2126.08 3136.21,2122.62Z" style="fill:rgb(255,171,101);"/><path d="M3213.39,2159.91C3227.2,2156.5 3239.24,2152.59 3248.19,2140.44C3251.53,2135.91 3253.73,2129.9 3257.85,2126C3258.27,2125.6 3261.88,2122.76 3262.64,2124.21C3264.83,2128.37 3256.95,2136.8 3254.97,2140.11C3251.64,2145.62 3245.28,2155.97 3252.1,2161.57C3254.44,2163.49 3257.6,2163.99 3259.88,2165.83" style="fill:rgb(255,171,101);"/><path d="M3297.65,2358.95C3297.39,2354.3 3294.97,2349.39 3294.37,2344.6C3292.34,2328.54 3291.54,2310.7 3292.74,2294.51C3295.79,2253.54 3314.12,2213.32 3331.79,2176.82C3339.16,2161.59 3350.1,2145.37 3352.32,2128.26C3359.07,2076.4 3327.92,2027.02 3327.91,1975.06C3327.91,1957.63 3350.73,1923.85 3371.14,1926.48C3378.34,1927.4 3386.69,1929.89 3390.07,1935.2C3400.36,1951.4 3410.55,1968 3421.4,1983.86C3444.59,2017.79 3453.76,2055.99 3464.51,2095.06C3472.77,2125.03 3483.73,2154.1 3491.39,2184.23C3497.7,2209.09 3501.08,2234.52 3509.28,2258.89C3517.95,2284.68 3526.9,2310.5 3538.64,2335.03C3543.27,2344.68 3547.76,2358.11 3539.6,2367.03" style="fill:rgb(255,199,135);"/><path d="M3350.97,1949.36C3350.6,1952.31 3352.34,1955.85 3353.28,1958.58C3355.92,1966.21 3359.35,1973.78 3364.22,1980.22C3366.51,1983.25 3368.65,1986.6 3373.12,1986.05C3375.93,1985.7 3379.02,1982.78 3381.4,1981.4C3387.24,1978.03 3393.07,1974.86 3399.11,1971.92C3401.28,1970.86 3403.68,1970.52 3405.92,1969.71C3406.28,1969.58 3407.8,1969.51 3407.68,1970.22C3407.4,1971.85 3403.64,1972.86 3402.45,1973.48C3397.43,1976.08 3392.5,1978.85 3387.54,1981.56C3380.72,1985.28 3376.38,1990.44 3367.99,1988.88C3363.53,1988.05 3360.21,1981.8 3358.76,1978.12C3354.89,1968.26 3350.16,1959.24 3350.13,1948.3" style="fill:rgb(255,171,101);"/><path d="M3389.31,2128.15C3394.79,2127.47 3400.39,2126.27 3405.64,2124.58C3408.28,2123.73 3411,2122.75 3413.72,2122.18C3416.91,2121.52 3420.71,2120.65 3423.94,2121.48C3424.63,2121.66 3426.76,2122.34 3426.14,2123.49C3425.06,2125.52 3421.43,2126.77 3419.39,2127.39C3413.43,2129.21 3407.02,2131.71 3400.87,2132.49C3398.71,2132.76 3393.05,2134.39 3392.2,2131.32" style="fill:rgb(255,171,101);"/><path d="M3338.24,1946.34C3337.11,1953.54 3337.62,1961.78 3336.94,1967.64C3331.54,2014.06 3349.59,2054.46 3369.63,2095.18C3371.93,2099.86 3376.6,2111.62 3383.07,2111.99C3387.91,2112.26 3408.67,2105.83 3407.54,2112.07C3405.99,2120.6 3389,2119.85 3383.02,2122.8C3379.48,2124.55 3381.96,2132.41 3379.76,2135.1C3375.56,2140.22 3368.78,2137.33 3365.3,2143.95C3352.64,2168.07 3352.3,2203.93 3345.12,2230.24C3339.07,2252.4 3327.76,2272.26 3323.52,2295.03C3319.08,2318.87 3324.06,2338.38 3330.14,2360.04L3297.65,2358.95C3297.39,2354.3 3294.97,2349.39 3294.37,2344.6C3292.34,2328.54 3291.54,2310.7 3292.74,2294.51C3295.79,2253.54 3314.12,2213.32 3331.79,2176.82C3339.16,2161.59 3350.1,2145.37 3352.32,2128.26C3359.07,2076.4 3327.92,2027.02 3327.91,1975.06C3327.91,1967.99 3332.01,1956.88 3338.24,1946.34Z" style="fill:rgb(255,171,101);"/></g><g transform="matrix(2.32824,0,0,2.32824,-4894.55,-3131.78)"><path d="M3333.79,1513.7C3330.68,1508.85 3335.43,1494.62 3336.19,1490.18C3338.82,1474.74 3343.75,1460.88 3347.75,1445.93C3349.75,1438.44 3347.6,1431.7 3355.63,1428.03C3381.49,1416.18 3412.22,1413.49 3439.8,1408.16C3497.18,1397.07 3557.11,1385.95 3615.42,1395.33C3630.65,1397.78 3645.81,1396.76 3660.92,1399.81C3666.28,1400.9 3674.15,1399.25 3678.55,1403.36C3691.71,1415.65 3696.8,1459.98 3698.68,1477.27C3700.33,1492.42 3701.94,1510.08 3699.32,1525.23C3695.37,1548.1 3654.49,1576.58 3638.56,1592.26C3629.4,1601.28 3620.13,1610.28 3610.99,1619.34C3608.74,1621.56 3604.13,1628.12 3601.27,1629.25C3600.58,1629.52 3599.41,1624.73 3599.35,1624.48C3598.54,1620.86 3598.41,1617.32 3597.97,1613.66C3596.79,1603.76 3595.07,1594.89 3592.26,1585.27C3583.89,1556.57 3580.05,1527.29 3566.98,1500.11C3562.98,1491.79 3558.93,1480.78 3551.33,1474.93C3529.26,1457.94 3490.65,1451.84 3464.38,1459.16C3451.95,1462.62 3440,1467.79 3427.64,1471.58C3400.09,1480.04 3373.66,1487.14 3349.93,1504.3" style="fill:rgb(113,199,186);"/><path d="M3691.48,1432.45C3695.51,1448.9 3697.62,1467.45 3698.68,1477.27C3700.33,1492.42 3701.94,1510.08 3699.32,1525.23C3695.37,1548.1 3654.49,1576.58 3638.56,1592.26C3631.83,1598.89 3625.04,1605.5 3618.29,1612.14C3612.02,1613.29 3604.47,1614.28 3599.5,1611.87C3598.83,1611.55 3598.2,1611.15 3597.6,1610.69C3596.43,1601.96 3594.79,1593.92 3592.26,1585.27C3585.04,1560.53 3581.2,1535.35 3571.89,1511.45C3575.93,1515 3580.37,1518.45 3584.67,1521.01C3604.39,1532.76 3630.58,1513.93 3633.96,1493.08C3635.34,1484.55 3630.82,1469.83 3638.6,1463.25C3644.01,1458.67 3651.02,1467.8 3655.11,1469.39C3660.84,1471.61 3666.15,1466.84 3669.87,1462.82C3678.17,1453.86 3684.84,1442.98 3691.48,1432.45Z" style="fill:rgb(71,182,165);"/><path d="M3331.46,1492.32C3329.26,1502.82 3326.25,1513 3325.39,1523.88C3324.86,1530.66 3324.89,1537.41 3324.89,1544.23C3324.89,1597.83 3367.99,1550.69 3387.97,1539.51C3408.72,1527.88 3467.3,1510.57 3490.57,1517.47C3518.91,1525.88 3515.85,1538.5 3521.62,1565.54C3528.43,1597.42 3531.76,1629.68 3538.15,1661.62C3539.14,1666.58 3544.76,1705.27 3547.97,1706.98C3550.51,1708.33 3553.63,1707.14 3555.96,1706.07C3571.51,1698.94 3568.41,1688.77 3576.73,1673.34C3579.87,1667.51 3585.09,1662.98 3588.95,1657.67C3597.27,1646.24 3610.38,1634.58 3614.65,1620.83C3618.67,1607.88 3615.27,1591.39 3614.18,1578.3C3611.34,1543.92 3608.46,1498.92 3586.67,1470.23C3579.22,1460.41 3570.47,1450.6 3560.39,1443.52C3488.78,1393.27 3418.29,1449.44 3351.33,1474.33" style="fill:rgb(68,174,158);"/><path d="M3324.89,1542.89C3326.18,1541.1 3327.44,1539.29 3328.65,1537.41C3346.85,1508.94 3386.74,1476.17 3420.68,1472.08C3431.4,1470.79 3441.96,1467.31 3452.62,1466.17C3459.15,1465.47 3465.67,1465.73 3472.21,1464.88C3482.35,1463.56 3495.12,1462.03 3505.1,1464.99C3522.38,1470.11 3533.78,1483.89 3544.83,1497.19C3556.27,1510.95 3574.14,1520.9 3580.98,1538.22C3584.29,1546.6 3581.29,1556.14 3580.44,1564.71C3578.05,1588.77 3567.96,1609.6 3563.09,1633.01C3559.97,1647.98 3558.48,1663.93 3557.03,1679.15C3556.16,1688.42 3556.6,1697.77 3553.3,1706.67C3553.24,1706.84 3553.17,1707.01 3553.1,1707.18C3551.39,1707.67 3549.56,1707.83 3547.97,1706.98C3544.76,1705.27 3539.14,1666.58 3538.15,1661.62C3531.76,1629.68 3528.43,1597.42 3521.62,1565.54C3515.85,1538.5 3518.91,1525.88 3490.57,1517.47C3467.3,1510.57 3408.72,1527.88 3387.97,1539.51C3367.99,1550.69 3324.89,1597.83 3324.89,1544.23L3324.89,1542.89Z" style="fill:rgb(42,109,99);"/><g><path d="M3340.52,1527.7C3330.13,1535.28 3326.66,1553.42 3324.19,1565.01C3317.48,1596.49 3313.99,1628.81 3325.91,1659.44C3333.33,1678.49 3351.9,1703.01 3339.94,1723.31C3336.32,1729.46 3332.4,1735.49 3328.01,1741.09C3324.32,1745.8 3321.26,1760.96 3316.13,1763.3C3307.82,1767.09 3298.49,1749.13 3295.95,1744.23C3286.13,1725.27 3286.76,1690.83 3261.47,1686.34C3252.41,1684.74 3242.63,1694.05 3237.52,1701.03C3230.24,1711 3233.06,1722.04 3232.98,1733.12C3232.98,1734.1 3216.83,1749.25 3215.09,1751.46C3209.35,1758.77 3213.98,1765.67 3216.16,1772.94C3216.31,1773.43 3208,1774.4 3207.6,1774.43C3202.95,1774.78 3198.72,1777.91 3197.89,1782.72C3195.02,1799.29 3200.78,1822.57 3211.8,1835.49C3216.49,1841 3222.78,1845.09 3227.32,1851C3248.21,1878.17 3273.79,1912.01 3308.95,1920.82C3327.11,1925.37 3377.8,1911.48 3396.49,1902.44C3412.19,1894.84 3425.41,1882.12 3438.06,1870.39C3461.06,1849.08 3485.05,1828.91 3505.4,1804.94C3520.51,1787.15 3539.74,1768.81 3546.11,1745.55C3552.23,1723.18 3550.45,1698.27 3552.05,1675.35C3553.38,1656.2 3555.04,1637.09 3557.09,1618.01C3560.53,1585.97 3570.59,1547.9 3553.73,1517.91C3548.95,1509.41 3540.29,1502.72 3533.72,1495.73C3523.95,1485.32 3508.07,1472.59 3492.96,1476.82" style="fill:rgb(255,199,135);"/><path d="M3331.7,1736.13C3330.51,1737.81 3329.28,1739.47 3328.01,1741.09C3324.32,1745.8 3321.26,1760.96 3316.13,1763.3C3307.82,1767.09 3298.49,1749.13 3295.95,1744.23C3290.16,1733.05 3288,1716.48 3282.02,1703.85C3280.4,1710.46 3277.89,1716.75 3276.51,1723.39C3275.04,1730.45 3277.42,1738.29 3274.56,1745.02C3270.21,1755.22 3251.37,1740.96 3253.64,1746.99C3256.05,1753.38 3262.93,1753.98 3267.79,1757.91C3282.54,1769.84 3292.41,1781.93 3292.42,1801.6C3292.42,1804.41 3294.08,1815.08 3292,1817.42C3289.67,1820.04 3282.12,1813.53 3280.14,1812.59C3267.31,1806.5 3257.18,1797.18 3245.12,1789.84C3243.22,1788.68 3233,1779.67 3230.74,1785.23C3228.98,1789.57 3235.69,1794.76 3238.36,1797.16C3245.69,1803.76 3262.93,1812.94 3265.06,1823.65C3266.74,1832.09 3252.08,1845.28 3254.74,1849.64C3258.97,1856.59 3265.68,1834.8 3272.08,1839.75C3275.01,1842.01 3272.97,1869.62 3273.94,1875.13C3276.68,1890.83 3316.66,1902.88 3330.17,1899.15C3344.17,1895.28 3365.89,1871.13 3379.52,1861.9C3381.86,1860.32 3403.31,1835.39 3408.51,1817.89C3413.53,1801.03 3404.35,1779.67 3404.16,1778.76C3401.43,1765.42 3454.69,1767.8 3458.48,1765.29C3468.59,1758.6 3460.41,1744.28 3467.59,1723.55C3475.81,1699.82 3498.78,1669.04 3500.37,1654.95C3504.51,1618.25 3523.94,1575.65 3508.54,1539.31C3500.52,1520.37 3470.51,1505.52 3451.24,1512.01C3423.39,1521.4 3362.89,1729.34 3348.2,1753.92L3331.7,1736.13Z" style="fill:rgb(255,171,101);"/><g transform="matrix(0.374176,-0.0181625,0.0181625,0.374176,2520.96,1514.18)"><g id="g450" transform="matrix(0.155675,0,0,-0.155675,0,2666.66)"><path id="path452" d="M13370.5,16300L13370.5,9163.74C13166.3,9042.2 12957.7,9034.36 12743.6,9163.74L12743.6,16300C12948.4,16405 13157.8,16394.9 13370.5,16300" style="fill:rgb(236,97,152);fill-rule:nonzero;"/></g><g id="path454" transform="matrix(0.133333,0,0,-0.133333,0,2666.66)"><path d="M15529.7,10540.9C15335.6,10434.4 15145.9,10438.9 14960.1,10540.9L14960.1,10699.2C15151.7,10586.3 15341.4,10599.6 15529.7,10699.2L15529.7,10540.9" style="fill:rgb(231,58,127);fill-rule:nonzero;"/></g><g id="g456" transform="matrix(0.157505,0,0,-0.157505,0,2666.66)"><path id="path458" d="M13134.9,16110.5C12984.6,16141 12832.8,16154.5 12675.7,16110.5L12675.7,16300C12826.2,16386.1 12979.4,16380.9 13134.9,16300L13134.9,16110.5" style="fill:rgb(244,164,196);fill-rule:nonzero;"/></g><g id="path462" transform="matrix(0.133333,0,0,-0.133333,0,2666.66)"><path d="M15840,13766.9L15840,10699.2L15610.8,10699.2L15610.8,11552.6L15695.3,11552.6L15695.3,13766.9L15840,13766.9" style="fill:rgb(244,164,196);fill-rule:nonzero;"/></g><g id="g464" transform="matrix(0.155675,0,0,-0.155675,0,2666.66)"><path id="path466" d="M12824.7,16300L12824.7,9163.74L12743.6,9163.74L12743.6,16300L12824.7,16300" style="fill:white;fill-opacity:0.42;fill-rule:nonzero;"/></g><g id="path468" transform="matrix(0.133333,0,0,-0.133333,0,2666.66)"><path d="M15610.8,13898.9L15610.8,10699.2L15244.9,10699.2L15244.9,13898.9L15610.8,13898.9" style="fill:rgb(231,58,127);fill-rule:nonzero;"/></g><g id="g470" transform="matrix(0.155675,0,0,-0.155675,0,2666.66)"><path id="path472" d="M13370.5,16300L13370.5,11904.2L13057.1,11904.2L13057.1,16300L13370.5,16300" style="fill:rgb(231,58,127);fill-rule:nonzero;"/></g><g id="path474" transform="matrix(0.133333,0,0,-0.133333,0,2666.66)"><path d="M15610.8,14350L15610.8,13898.9L14878.9,13898.9L14878.9,14350L15610.8,14350" style="fill:rgb(244,164,196);fill-rule:nonzero;"/></g><g id="g476" transform="matrix(0.15302,0,0,-0.15302,0,2666.66)"><path id="path478" d="M13602.4,16300L13602.4,16166.3L12964.7,16166.3L12964.7,16300L13602.4,16300" style="fill:rgb(244,164,196);fill-rule:nonzero;"/></g><g id="g480"></g><g id="g486"></g><g id="path492" transform="matrix(0.133333,0,0,-0.133333,0,2666.66)"><path d="M15696.7,10810L15610.8,10810L15610.8,11552.6L15696.7,11552.6L15696.7,10810" style="fill:rgb(231,58,127);fill-rule:nonzero;"/></g></g><path d="M3383.67,1496.87C3362.78,1504.38 3346.81,1533.42 3341.57,1553.25C3333.24,1584.77 3343.99,1614.41 3341.03,1645.48C3336.12,1696.9 3303.72,1746.16 3309.01,1798.13C3312.5,1832.48 3335.32,1854.6 3370.83,1843.82C3376.01,1842.25 3378.07,1828.71 3378.81,1824.93C3383.56,1800.52 3400.85,1771.82 3412.59,1750.32C3448.29,1684.93 3508.13,1630.17 3523.75,1555.3C3537.42,1489.77 3521.07,1456.1 3448.22,1472.39" style="fill:rgb(255,199,135);"/><path d="M3417.54,1484.03L3383.67,1496.87C3362.78,1504.38 3346.81,1533.42 3341.57,1553.25C3333.24,1584.77 3343.99,1614.41 3341.03,1645.48C3336.12,1696.9 3303.72,1746.16 3309.01,1798.13C3312.5,1832.48 3335.32,1854.6 3370.83,1843.82C3371.38,1843.65 3371.88,1843.36 3372.36,1842.96C3371.96,1842.95 3371.55,1842.94 3371.14,1842.9C3354.65,1841.36 3323.13,1816.6 3334.75,1797.49C3339.94,1788.93 3352.73,1780.8 3362.88,1780.79C3378.11,1780.78 3383.68,1780.38 3383.58,1779.84C3381.35,1767.26 3343.99,1774.43 3336.14,1776.02C3331.64,1776.93 3322.51,1775.68 3321.56,1770.09C3318.7,1753.24 3333.13,1726.52 3339.35,1711.81C3346.96,1693.78 3352.31,1674.61 3361.96,1657.49C3366.47,1649.48 3388.86,1645.04 3388.99,1642.75C3389.48,1634.7 3368.09,1639.85 3364.06,1630.14C3360.69,1622.01 3367.95,1603.84 3370.99,1596.62C3381.01,1572.91 3386.82,1547.81 3397.26,1524.2C3401.91,1513.7 3404.78,1502.45 3411.07,1492.71C3411.61,1491.87 3414.66,1487.67 3417.54,1484.03Z" style="fill:rgb(255,171,101);"/></g></g><g transform="matrix(2.23154,0,0,2.23154,-2565.87,-2930.9)"><g transform="matrix(0.861123,-0.219698,0.541398,0.843718,-600.341,843.144)"><ellipse cx="2857.78" cy="1956.14" rx="213.697" ry="76.153" style="fill-opacity:0.18;"/></g><g transform="matrix(1.03293,0,0,1.14946,-69.0372,-253.523)"><path d="M2929.83,1539.6C3035.58,1539.6 3121.43,1572.67 3121.43,1613.4C3121.43,1654.13 3101.86,1841.32 2929.84,1840.92C2730.35,1840.47 2738.24,1654.13 2738.24,1613.4C2738.24,1572.67 2824.09,1539.6 2929.83,1539.6Z" style="fill:rgb(242,225,154);"/></g><path d="M3154.74,1614.9C3151.05,1680.16 3121.06,1862.96 2957.28,1862.55C2908.5,1862.42 2871.73,1850.33 2843.99,1831.3C2868.44,1837.88 2900.95,1838.25 2923.03,1826.85C2944.66,1815.69 2962.47,1790.67 2970.98,1768.4C2977.83,1750.45 2980.86,1735 2994.31,1720.22C3003.81,1709.77 3016.71,1703.83 3028.74,1696.94C3064.7,1676.34 3103.91,1664.15 3134.77,1635.2C3140.53,1629.8 3148.28,1622.75 3154.74,1614.9Z" style="fill:rgb(238,217,126);"/><g transform="matrix(1.03293,0,0,1.14946,-69.0372,-253.523)"><ellipse cx="2929.83" cy="1613.4" rx="191.595" ry="73.799" style="fill:rgb(251,245,220);"/></g><g transform="matrix(1,0,0,1,26.9725,-16.5342)"><ellipse cx="2929.83" cy="1613.4" rx="191.595" ry="73.799" style="fill:rgb(230,198,65);"/></g><path d="M2777.46,1622.87C2802.95,1593.63 2874.71,1572.54 2959.14,1572.54C3041.13,1572.54 3111.15,1592.42 3138.49,1620.34C3112.99,1649.58 3041.24,1670.66 2956.81,1670.66C2874.82,1670.66 2804.8,1650.78 2777.46,1622.87Z" style="fill:rgb(183,152,24);"/><path d="M2780.79,1619.35C2808.79,1591.95 2878.13,1572.54 2959.14,1572.54C2965.16,1572.54 2971.12,1572.65 2976.99,1572.86C2963.75,1576.01 2950.72,1580.02 2938.67,1584.41C2929,1587.93 2918.73,1591.8 2910.4,1597.94C2908.39,1599.42 2904.31,1602.96 2905.86,1606.13C2909.89,1614.36 2929.71,1615.41 2937.31,1616.58C2969.54,1621.52 3001.33,1619.51 3033.77,1620.55C3043.6,1620.87 3054.77,1621.29 3063.77,1625.52C3066.99,1627.04 3072.61,1628.87 3071.21,1633.59C3068.81,1641.7 3052.81,1644.53 3046.08,1646.44C3016.72,1654.75 2988.22,1649.72 2958.43,1651.89C2950.35,1652.48 2942.31,1654.76 2934.46,1656.63C2933.24,1656.92 2926.88,1657.82 2928.4,1660.7C2931.24,1666.1 2954.11,1666.45 2959.49,1666.67C2982.62,1667.6 3005.53,1666.24 3028.5,1665.31C3006.36,1668.76 2982.15,1670.66 2956.81,1670.66C2877.47,1670.66 2809.33,1652.05 2780.25,1625.55C2780.27,1623.39 2780.45,1621.33 2780.79,1619.35Z" style="fill:rgb(205,170,27);"/></g><g transform="matrix(2.32824,0,0,2.32824,-4894.55,-3131.78)"><path d="M2318.82,1449.65C2325.62,1452.97 2326.49,1465.6 2329.58,1471.89C2340.2,1493.53 2353.7,1514.96 2362.04,1537.49C2374.9,1572.27 2357.87,1582.71 2390,1616.59C2400.23,1627.38 2406.67,1642.23 2417.06,1653.33C2417.36,1653.65 2419.98,1655.94 2420.28,1655.75C2421.99,1654.68 2430.55,1611.49 2432.42,1606.59C2442.2,1580.99 2462.26,1559.27 2485.98,1545.69C2519.17,1526.69 2565.7,1520.67 2601.36,1534.06C2615.47,1539.37 2626.43,1552.2 2641.99,1553.73C2642.04,1553.73 2665.45,1521.78 2672.52,1505.68C2675.9,1497.98 2668.75,1489.74 2666.6,1482.7C2655.93,1447.74 2644.13,1425.3 2606.77,1418.56C2532.81,1405.23 2370.04,1407.94 2303.35,1444.01" style="fill:rgb(113,199,186);"/><path d="M2400.61,1673.46C2389.44,1645.61 2361.58,1625.38 2350.28,1596.57C2347.1,1588.48 2343.18,1531.93 2341.3,1518.49C2339.83,1507.9 2325.44,1484.81 2328.47,1475.18C2330.36,1469.2 2340.67,1465.33 2344.98,1461.34C2387.39,1422.02 2433.11,1402.79 2491.07,1402.79C2542.87,1402.78 2596.27,1397.6 2645.16,1418.88C2660.18,1425.41 2657.6,1436.35 2662.12,1449.45C2674.69,1485.85 2689.57,1523.81 2671.55,1562.76C2666.4,1573.9 2657.6,1582.9 2651.7,1593.62" style="fill:rgb(68,174,158);"/><path d="M2397.8,1666.71C2390.8,1668 2387.86,1654.54 2386.02,1649.88C2378.8,1631.66 2358.84,1611.97 2360.54,1591.34C2362.03,1573.28 2369.23,1554.97 2374.43,1537.78C2379.09,1522.37 2380.87,1506.29 2388,1491.64C2395.31,1476.61 2447.66,1458 2461.89,1454.99C2496.44,1447.68 2532.01,1446.85 2567.17,1447.85C2628.45,1449.59 2667.79,1446.7 2678.51,1518.5C2680.11,1529.25 2675.11,1539.28 2672.74,1549.82C2671.97,1553.21 2660.04,1605.38 2657.89,1607.02C2650.89,1612.39 2632.68,1606.24 2624.07,1608.23C2608.05,1611.93 2593.3,1619.89 2577.36,1624C2566.3,1626.85 2554.49,1627.8 2543.24,1629.84" style="fill:rgb(42,109,99);"/><path d="M2579.65,1462.18C2577.96,1461.35 2577.25,1459.01 2575.68,1457.91C2573.49,1456.37 2554.3,1455.35 2550.22,1454.63C2474.99,1441.43 2437.75,1477.81 2401.27,1540.61C2391.54,1557.36 2392.47,1580.12 2390.5,1598.83C2385.04,1650.75 2368.63,1691.8 2390.16,1745.11C2394.46,1755.78 2405.68,1764.58 2412.28,1773.77C2429.95,1798.34 2448.64,1822.52 2470.14,1843.91C2472.66,1846.41 2496.07,1871.53 2498.88,1870.46C2507.56,1867.17 2515.3,1860.55 2523.72,1856.24C2539.74,1848.04 2561.33,1843.66 2578.76,1839.68C2584.04,1838.48 2589.7,1838.22 2595.09,1837.7C2603.87,1836.85 2648.57,1836.47 2654.36,1825.26C2669.99,1795.02 2651.64,1744.59 2646.62,1713.74C2643.19,1692.62 2642.39,1670.46 2635.09,1650.17C2618.85,1605.03 2584.16,1570.65 2560.11,1529.99C2554.48,1520.48 2551.01,1509.68 2546.41,1499.71" style="fill:rgb(255,199,135);"/><path d="M2647.06,1716.29C2646.91,1715.42 2646.76,1714.58 2646.62,1713.74C2643.19,1692.62 2642.39,1670.46 2635.09,1650.17C2618.85,1605.03 2584.16,1570.65 2560.11,1529.99C2555.82,1522.74 2552.78,1514.74 2549.54,1506.93C2549.07,1506.48 2548.59,1506.03 2548.11,1505.57L2498.47,1490.81C2493.09,1497.14 2492.22,1504.5 2490.59,1512.42C2489.47,1517.81 2486.45,1522.88 2485.58,1528.34C2482.36,1548.51 2491.21,1568.97 2500.75,1586.32C2503.38,1591.11 2521.19,1624.64 2516.23,1629.4C2511.73,1633.72 2500.87,1633.77 2495.1,1634.29C2477.36,1635.9 2460.73,1638.08 2442.78,1638.08C2437.22,1638.08 2426.33,1635.35 2421.23,1638.21C2420.67,1638.53 2427.51,1638.7 2433.91,1639.8C2443.26,1641.4 2452.39,1642.62 2461.93,1642.28C2490.36,1641.25 2520.52,1637.19 2548.84,1640.69C2553.5,1641.27 2571.18,1641.48 2572.13,1649.45C2572.49,1652.45 2560.12,1653.31 2558.17,1653.42C2542.39,1654.32 2526.28,1653.58 2510.52,1654.89C2509.2,1655 2494.12,1656.03 2493.94,1657.56C2492.35,1671.61 2561.4,1661.1 2525.4,1673.24C2522.22,1674.31 2518.89,1675.85 2515.62,1676.58C2506.55,1678.6 2496.88,1677.84 2487.63,1678.68C2467.93,1680.48 2448.21,1687.55 2430.11,1695.21C2417.78,1700.43 2405.91,1705.55 2406.01,1705.82C2408.95,1713.74 2439.68,1709.9 2446.54,1707.9C2449.07,1707.16 2456.65,1703.19 2459.25,1705.36C2472.35,1716.34 2481.43,1751.81 2491.37,1767.61C2498.96,1779.67 2510.96,1793.57 2524.2,1799.69C2543.72,1808.72 2587.07,1810.96 2607.7,1806.4C2640.36,1799.19 2645.8,1749.01 2646.91,1722.63C2647,1720.51 2647.05,1718.39 2647.06,1716.29Z" style="fill:rgb(255,171,101);"/><g transform="matrix(-0.386469,0.187926,0.208177,0.410881,3224.87,671.358)"><g id="path2612" transform="matrix(0.445144,0,0,-0.445144,-4032.93,3849.29)"><path d="M15379.5,3538.58L13163.7,4880.73C13158.1,4883.97 13158.1,4892.1 13163.7,4895.35L14087.2,5428.52L16300,4150.97L15379.5,3538.58" style="fill-opacity:0.23;fill-rule:nonzero;"/></g><g id="path26121" serif:id="path2612" transform="matrix(0.445144,0,0,-0.445144,-4032.93,3849.29)"><path d="M15363.9,3610.45L13163.7,4880.73C13158.1,4883.97 13158.1,4892.1 13163.7,4895.35L14087.2,5428.52L16300,4150.97L15363.9,3610.45" style="fill:rgb(155,230,225);fill-rule:nonzero;"/></g><g id="path2616" transform="matrix(0.442304,0,0,-0.442304,-4032.93,3849.29)"><path d="M15473.4,3694.08L13340.1,4925.73L14166.7,5402.99L16300,4171.34L15473.4,3694.08" style="fill:rgb(68,174,158);fill-rule:nonzero;"/></g><g transform="matrix(0.443354,0.221791,-0.221791,0.443354,1423.23,847.078)"><ellipse cx="1826.22" cy="1016.4" rx="131.114" ry="45.758" style="fill:rgb(155,230,225);"/></g><g transform="matrix(0.443354,0.221791,-0.221791,0.443354,2157.07,1268.3)"><ellipse cx="1826.22" cy="1016.4" rx="131.114" ry="45.758" style="fill:rgb(155,230,225);"/></g><g id="path2620" transform="matrix(0.434969,0,0,-0.434969,-4032.93,3849.29)"><path d="M16009.9,4328.69C15934.7,4372.19 15899.9,4430.34 15904.9,4487.55L14790,5131.29C14685.5,5125.4 14577.2,5145.44 14497.6,5191.38L14257.3,5330.15L13844.4,5091.79L14084.8,4953.01C14162.2,4908.32 14196.9,4847.98 14189.4,4789.2L15312.5,4140.77C15408.8,4142.27 15505.9,4122.12 15579,4079.93L15869.1,3912.42L16300,4161.24L16009.9,4328.69" style="fill:rgb(155,230,225);fill-rule:nonzero;"/></g><g id="path2624" transform="matrix(0.415788,0,0,-0.415788,-4032.93,3849.29)"><path d="M16070.2,4662.57C15867.8,4545.75 15567.2,4529.83 15398.8,4627.08C15230.5,4724.32 15258,4897.85 15460.3,5014.68C15662.6,5131.5 15963.2,5147.34 16131.6,5050.17C16300,4952.92 16272.5,4779.39 16070.2,4662.57" style="fill:rgb(68,174,158);fill-rule:nonzero;"/></g><g id="path2628" transform="matrix(0.49567,0,0,-0.49567,-5736.73,4414.56)"><path d="M16216.6,5449.84C16133.2,5401.65 15997.9,5401.65 15914.5,5449.84C15831,5498.03 15831,5576.07 15914.5,5624.27C15997.9,5672.39 16133.2,5672.39 16216.6,5624.27C16300,5576.07 16300,5498.03 16216.6,5449.84" style="fill:rgb(68,174,158);fill-rule:nonzero;"/></g><g transform="matrix(0.173198,0.0796165,-0.158912,0.0950126,2260.9,1418.26)"><path d="M1285.23,1254.28C1295.69,1256.47 1305.78,1259.58 1315.5,1263.61C1336.75,1272.43 1354.99,1284.86 1370.23,1300.9C1385.47,1316.94 1397.5,1335.99 1406.32,1358.04C1415.14,1380.1 1419.55,1403.55 1419.55,1428.41L1304.07,1428.41C1303.27,1407.56 1296.65,1391.92 1284.22,1381.5C1271.79,1371.07 1257.55,1365.86 1241.51,1365.86C1222.27,1365.86 1207.43,1372.08 1197.01,1384.51C1186.58,1396.94 1181.37,1411.17 1181.37,1427.21C1181.37,1438.44 1184.17,1449.47 1189.79,1460.29C1195.4,1471.12 1209.84,1480.94 1233.09,1489.77L1305.27,1518.64C1350.98,1536.28 1382.46,1560.34 1399.7,1590.81C1416.94,1621.29 1425.57,1654.57 1425.57,1690.66C1425.57,1716.32 1420.95,1740.18 1411.73,1762.24C1402.51,1784.29 1389.88,1803.74 1373.84,1820.58C1357.8,1837.42 1338.55,1850.65 1316.1,1860.28C1306.2,1864.52 1295.91,1867.83 1285.23,1870.2L1285.23,1938.99L1200.86,1938.99L1200.86,1870.64C1169.12,1864.14 1141.37,1849.86 1117.61,1827.8C1100.77,1812.56 1087.13,1793.51 1076.71,1770.65C1066.28,1747.8 1060.67,1721.13 1059.87,1690.66L1175.35,1690.66C1177.76,1707.5 1183.57,1723.14 1192.79,1737.57C1202.02,1752.01 1218.26,1759.23 1241.51,1759.23C1259.16,1759.23 1275,1753.41 1289.03,1741.78C1303.07,1730.16 1310.08,1713.92 1310.08,1693.07C1310.08,1676.22 1305.67,1661.79 1296.85,1649.76C1288.03,1637.73 1271.99,1627.3 1248.73,1618.48L1189.79,1596.83C1151.29,1582.39 1121.02,1560.94 1098.96,1532.47C1076.91,1504 1065.88,1469.32 1065.88,1428.41C1065.88,1402.75 1070.69,1378.89 1080.32,1356.84C1089.94,1334.78 1103.17,1315.74 1120.02,1299.7C1136.06,1283.66 1154.9,1271.43 1176.56,1263.01C1184.44,1259.94 1192.55,1257.43 1200.86,1255.48L1200.86,1169.48L1285.23,1169.48L1285.23,1254.28Z" style="fill:rgb(155,230,225);fill-rule:nonzero;"/></g><g id="path26281" serif:id="path2628" transform="matrix(0.49567,0,0,-0.49567,-5182.1,4722.93)"><path d="M16216.6,5449.84C16133.2,5401.65 15997.9,5401.65 15914.5,5449.84C15831,5498.03 15831,5576.07 15914.5,5624.27C15997.9,5672.39 16133.2,5672.39 16216.6,5624.27C16300,5576.07 16300,5498.03 16216.6,5449.84" style="fill:rgb(68,174,158);fill-rule:nonzero;"/></g><g transform="matrix(0.173198,0.0796165,-0.158912,0.0950126,2815.52,1726.64)"><path d="M1285.23,1254.28C1295.69,1256.47 1305.78,1259.58 1315.5,1263.61C1336.75,1272.43 1354.99,1284.86 1370.23,1300.9C1385.47,1316.94 1397.5,1335.99 1406.32,1358.04C1415.14,1380.1 1419.55,1403.55 1419.55,1428.41L1304.07,1428.41C1303.27,1407.56 1296.65,1391.92 1284.22,1381.5C1271.79,1371.07 1257.55,1365.86 1241.51,1365.86C1222.27,1365.86 1207.43,1372.08 1197.01,1384.51C1186.58,1396.94 1181.37,1411.17 1181.37,1427.21C1181.37,1438.44 1184.17,1449.47 1189.79,1460.29C1195.4,1471.12 1209.84,1480.94 1233.09,1489.77L1305.27,1518.64C1350.98,1536.28 1382.46,1560.34 1399.7,1590.81C1416.94,1621.29 1425.57,1654.57 1425.57,1690.66C1425.57,1716.32 1420.95,1740.18 1411.73,1762.24C1402.51,1784.29 1389.88,1803.74 1373.84,1820.58C1357.8,1837.42 1338.55,1850.65 1316.1,1860.28C1306.2,1864.52 1295.91,1867.83 1285.23,1870.2L1285.23,1938.99L1200.86,1938.99L1200.86,1870.64C1169.12,1864.14 1141.37,1849.86 1117.61,1827.8C1100.77,1812.56 1087.13,1793.51 1076.71,1770.65C1066.28,1747.8 1060.67,1721.13 1059.87,1690.66L1175.35,1690.66C1177.76,1707.5 1183.57,1723.14 1192.79,1737.57C1202.02,1752.01 1218.26,1759.23 1241.51,1759.23C1259.16,1759.23 1275,1753.41 1289.03,1741.78C1303.07,1730.16 1310.08,1713.92 1310.08,1693.07C1310.08,1676.22 1305.67,1661.79 1296.85,1649.76C1288.03,1637.73 1271.99,1627.3 1248.73,1618.48L1189.79,1596.83C1151.29,1582.39 1121.02,1560.94 1098.96,1532.47C1076.91,1504 1065.88,1469.32 1065.88,1428.41C1065.88,1402.75 1070.69,1378.89 1080.32,1356.84C1089.94,1334.78 1103.17,1315.74 1120.02,1299.7C1136.06,1283.66 1154.9,1271.43 1176.56,1263.01C1184.44,1259.94 1192.55,1257.43 1200.86,1255.48L1200.86,1169.48L1285.23,1169.48L1285.23,1254.28Z" style="fill:rgb(155,230,225);fill-rule:nonzero;"/></g></g><g transform="matrix(-0.421227,0.0851014,0.16506,0.504722,3328.77,734.932)"><g id="path26122" serif:id="path2612" transform="matrix(0.445144,0,0,-0.445144,-4032.93,3849.29)"><path d="M15379.5,3538.58L13163.7,4880.73C13158.1,4883.97 13158.1,4892.1 13163.7,4895.35L14087.2,5428.52L16300,4150.97L15379.5,3538.58" style="fill-opacity:0.23;fill-rule:nonzero;"/></g><g id="path26123" serif:id="path2612" transform="matrix(0.445144,0,0,-0.445144,-4032.93,3849.29)"><path d="M15363.9,3610.45L13163.7,4880.73C13158.1,4883.97 13158.1,4892.1 13163.7,4895.35L14087.2,5428.52L16300,4150.97L15363.9,3610.45" style="fill:rgb(155,230,225);fill-rule:nonzero;"/></g><g id="path26161" serif:id="path2616" transform="matrix(0.442304,0,0,-0.442304,-4032.93,3849.29)"><path d="M15473.4,3694.08L13340.1,4925.73L14166.7,5402.99L16300,4171.34L15473.4,3694.08" style="fill:rgb(68,174,158);fill-rule:nonzero;"/></g><g transform="matrix(0.443354,0.221791,-0.221791,0.443354,1423.23,847.078)"><ellipse cx="1826.22" cy="1016.4" rx="131.114" ry="45.758" style="fill:rgb(155,230,225);"/></g><g transform="matrix(0.443354,0.221791,-0.221791,0.443354,2157.07,1268.3)"><ellipse cx="1826.22" cy="1016.4" rx="131.114" ry="45.758" style="fill:rgb(155,230,225);"/></g><g id="path26201" serif:id="path2620" transform="matrix(0.434969,0,0,-0.434969,-4032.93,3849.29)"><path d="M16009.9,4328.69C15934.7,4372.19 15899.9,4430.34 15904.9,4487.55L14790,5131.29C14685.5,5125.4 14577.2,5145.44 14497.6,5191.38L14257.3,5330.15L13844.4,5091.79L14084.8,4953.01C14162.2,4908.32 14196.9,4847.98 14189.4,4789.2L15312.5,4140.77C15408.8,4142.27 15505.9,4122.12 15579,4079.93L15869.1,3912.42L16300,4161.24L16009.9,4328.69" style="fill:rgb(155,230,225);fill-rule:nonzero;"/></g><g id="path26241" serif:id="path2624" transform="matrix(0.415788,0,0,-0.415788,-4032.93,3849.29)"><path d="M16070.2,4662.57C15867.8,4545.75 15567.2,4529.83 15398.8,4627.08C15230.5,4724.32 15258,4897.85 15460.3,5014.68C15662.6,5131.5 15963.2,5147.34 16131.6,5050.17C16300,4952.92 16272.5,4779.39 16070.2,4662.57" style="fill:rgb(68,174,158);fill-rule:nonzero;"/></g><g id="path26282" serif:id="path2628" transform="matrix(0.49567,0,0,-0.49567,-5736.73,4414.56)"><path d="M16216.6,5449.84C16133.2,5401.65 15997.9,5401.65 15914.5,5449.84C15831,5498.03 15831,5576.07 15914.5,5624.27C15997.9,5672.39 16133.2,5672.39 16216.6,5624.27C16300,5576.07 16300,5498.03 16216.6,5449.84" style="fill:rgb(68,174,158);fill-rule:nonzero;"/></g><g transform="matrix(0.173198,0.0796165,-0.158912,0.0950126,2260.9,1418.26)"><path d="M1285.23,1254.28C1295.69,1256.47 1305.78,1259.58 1315.5,1263.61C1336.75,1272.43 1354.99,1284.86 1370.23,1300.9C1385.47,1316.94 1397.5,1335.99 1406.32,1358.04C1415.14,1380.1 1419.55,1403.55 1419.55,1428.41L1304.07,1428.41C1303.27,1407.56 1296.65,1391.92 1284.22,1381.5C1271.79,1371.07 1257.55,1365.86 1241.51,1365.86C1222.27,1365.86 1207.43,1372.08 1197.01,1384.51C1186.58,1396.94 1181.37,1411.17 1181.37,1427.21C1181.37,1438.44 1184.17,1449.47 1189.79,1460.29C1195.4,1471.12 1209.84,1480.94 1233.09,1489.77L1305.27,1518.64C1350.98,1536.28 1382.46,1560.34 1399.7,1590.81C1416.94,1621.29 1425.57,1654.57 1425.57,1690.66C1425.57,1716.32 1420.95,1740.18 1411.73,1762.24C1402.51,1784.29 1389.88,1803.74 1373.84,1820.58C1357.8,1837.42 1338.55,1850.65 1316.1,1860.28C1306.2,1864.52 1295.91,1867.83 1285.23,1870.2L1285.23,1938.99L1200.86,1938.99L1200.86,1870.64C1169.12,1864.14 1141.37,1849.86 1117.61,1827.8C1100.77,1812.56 1087.13,1793.51 1076.71,1770.65C1066.28,1747.8 1060.67,1721.13 1059.87,1690.66L1175.35,1690.66C1177.76,1707.5 1183.57,1723.14 1192.79,1737.57C1202.02,1752.01 1218.26,1759.23 1241.51,1759.23C1259.16,1759.23 1275,1753.41 1289.03,1741.78C1303.07,1730.16 1310.08,1713.92 1310.08,1693.07C1310.08,1676.22 1305.67,1661.79 1296.85,1649.76C1288.03,1637.73 1271.99,1627.3 1248.73,1618.48L1189.79,1596.83C1151.29,1582.39 1121.02,1560.94 1098.96,1532.47C1076.91,1504 1065.88,1469.32 1065.88,1428.41C1065.88,1402.75 1070.69,1378.89 1080.32,1356.84C1089.94,1334.78 1103.17,1315.74 1120.02,1299.7C1136.06,1283.66 1154.9,1271.43 1176.56,1263.01C1184.44,1259.94 1192.55,1257.43 1200.86,1255.48L1200.86,1169.48L1285.23,1169.48L1285.23,1254.28Z" style="fill:rgb(155,230,225);fill-rule:nonzero;"/></g><g id="path26283" serif:id="path2628" transform="matrix(0.49567,0,0,-0.49567,-5182.1,4722.93)"><path d="M16216.6,5449.84C16133.2,5401.65 15997.9,5401.65 15914.5,5449.84C15831,5498.03 15831,5576.07 15914.5,5624.27C15997.9,5672.39 16133.2,5672.39 16216.6,5624.27C16300,5576.07 16300,5498.03 16216.6,5449.84" style="fill:rgb(68,174,158);fill-rule:nonzero;"/></g><g transform="matrix(0.173198,0.0796165,-0.158912,0.0950126,2815.52,1726.64)"><path d="M1285.23,1254.28C1295.69,1256.47 1305.78,1259.58 1315.5,1263.61C1336.75,1272.43 1354.99,1284.86 1370.23,1300.9C1385.47,1316.94 1397.5,1335.99 1406.32,1358.04C1415.14,1380.1 1419.55,1403.55 1419.55,1428.41L1304.07,1428.41C1303.27,1407.56 1296.65,1391.92 1284.22,1381.5C1271.79,1371.07 1257.55,1365.86 1241.51,1365.86C1222.27,1365.86 1207.43,1372.08 1197.01,1384.51C1186.58,1396.94 1181.37,1411.17 1181.37,1427.21C1181.37,1438.44 1184.17,1449.47 1189.79,1460.29C1195.4,1471.12 1209.84,1480.94 1233.09,1489.77L1305.27,1518.64C1350.98,1536.28 1382.46,1560.34 1399.7,1590.81C1416.94,1621.29 1425.57,1654.57 1425.57,1690.66C1425.57,1716.32 1420.95,1740.18 1411.73,1762.24C1402.51,1784.29 1389.88,1803.74 1373.84,1820.58C1357.8,1837.42 1338.55,1850.65 1316.1,1860.28C1306.2,1864.52 1295.91,1867.83 1285.23,1870.2L1285.23,1938.99L1200.86,1938.99L1200.86,1870.64C1169.12,1864.14 1141.37,1849.86 1117.61,1827.8C1100.77,1812.56 1087.13,1793.51 1076.71,1770.65C1066.28,1747.8 1060.67,1721.13 1059.87,1690.66L1175.35,1690.66C1177.76,1707.5 1183.57,1723.14 1192.79,1737.57C1202.02,1752.01 1218.26,1759.23 1241.51,1759.23C1259.16,1759.23 1275,1753.41 1289.03,1741.78C1303.07,1730.16 1310.08,1713.92 1310.08,1693.07C1310.08,1676.22 1305.67,1661.79 1296.85,1649.76C1288.03,1637.73 1271.99,1627.3 1248.73,1618.48L1189.79,1596.83C1151.29,1582.39 1121.02,1560.94 1098.96,1532.47C1076.91,1504 1065.88,1469.32 1065.88,1428.41C1065.88,1402.75 1070.69,1378.89 1080.32,1356.84C1089.94,1334.78 1103.17,1315.74 1120.02,1299.7C1136.06,1283.66 1154.9,1271.43 1176.56,1263.01C1184.44,1259.94 1192.55,1257.43 1200.86,1255.48L1200.86,1169.48L1285.23,1169.48L1285.23,1254.28Z" style="fill:rgb(155,230,225);fill-rule:nonzero;"/></g></g><g transform="matrix(-0.468977,0.032301,0.158512,0.460284,3433.71,902.867)"><g id="path26124" serif:id="path2612" transform="matrix(0.445144,0,0,-0.445144,-4032.93,3849.29)"><path d="M15379.5,3538.58L13163.7,4880.73C13158.1,4883.97 13158.1,4892.1 13163.7,4895.35L14087.2,5428.52L16300,4150.97L15379.5,3538.58" style="fill-opacity:0.23;fill-rule:nonzero;"/></g><g id="path26125" serif:id="path2612" transform="matrix(0.445144,0,0,-0.445144,-4032.93,3849.29)"><path d="M15363.9,3610.45L13163.7,4880.73C13158.1,4883.97 13158.1,4892.1 13163.7,4895.35L14087.2,5428.52L16300,4150.97L15363.9,3610.45" style="fill:rgb(155,230,225);fill-rule:nonzero;"/></g><g id="path26162" serif:id="path2616" transform="matrix(0.442304,0,0,-0.442304,-4032.93,3849.29)"><path d="M15473.4,3694.08L13340.1,4925.73L14166.7,5402.99L16300,4171.34L15473.4,3694.08" style="fill:rgb(68,174,158);fill-rule:nonzero;"/></g><g transform="matrix(0.443354,0.221791,-0.221791,0.443354,1423.23,847.078)"><ellipse cx="1826.22" cy="1016.4" rx="131.114" ry="45.758" style="fill:rgb(155,230,225);"/></g><g transform="matrix(0.443354,0.221791,-0.221791,0.443354,2157.07,1268.3)"><ellipse cx="1826.22" cy="1016.4" rx="131.114" ry="45.758" style="fill:rgb(155,230,225);"/></g><g id="path26202" serif:id="path2620" transform="matrix(0.434969,0,0,-0.434969,-4032.93,3849.29)"><path d="M16009.9,4328.69C15934.7,4372.19 15899.9,4430.34 15904.9,4487.55L14790,5131.29C14685.5,5125.4 14577.2,5145.44 14497.6,5191.38L14257.3,5330.15L13844.4,5091.79L14084.8,4953.01C14162.2,4908.32 14196.9,4847.98 14189.4,4789.2L15312.5,4140.77C15408.8,4142.27 15505.9,4122.12 15579,4079.93L15869.1,3912.42L16300,4161.24L16009.9,4328.69" style="fill:rgb(155,230,225);fill-rule:nonzero;"/></g><g id="path26242" serif:id="path2624" transform="matrix(0.415788,0,0,-0.415788,-4032.93,3849.29)"><path d="M16070.2,4662.57C15867.8,4545.75 15567.2,4529.83 15398.8,4627.08C15230.5,4724.32 15258,4897.85 15460.3,5014.68C15662.6,5131.5 15963.2,5147.34 16131.6,5050.17C16300,4952.92 16272.5,4779.39 16070.2,4662.57" style="fill:rgb(68,174,158);fill-rule:nonzero;"/></g><g id="path26284" serif:id="path2628" transform="matrix(0.49567,0,0,-0.49567,-5736.73,4414.56)"><path d="M16216.6,5449.84C16133.2,5401.65 15997.9,5401.65 15914.5,5449.84C15831,5498.03 15831,5576.07 15914.5,5624.27C15997.9,5672.39 16133.2,5672.39 16216.6,5624.27C16300,5576.07 16300,5498.03 16216.6,5449.84" style="fill:rgb(68,174,158);fill-rule:nonzero;"/></g><g transform="matrix(0.173198,0.0796165,-0.158912,0.0950126,2260.9,1418.26)"><path d="M1285.23,1254.28C1295.69,1256.47 1305.78,1259.58 1315.5,1263.61C1336.75,1272.43 1354.99,1284.86 1370.23,1300.9C1385.47,1316.94 1397.5,1335.99 1406.32,1358.04C1415.14,1380.1 1419.55,1403.55 1419.55,1428.41L1304.07,1428.41C1303.27,1407.56 1296.65,1391.92 1284.22,1381.5C1271.79,1371.07 1257.55,1365.86 1241.51,1365.86C1222.27,1365.86 1207.43,1372.08 1197.01,1384.51C1186.58,1396.94 1181.37,1411.17 1181.37,1427.21C1181.37,1438.44 1184.17,1449.47 1189.79,1460.29C1195.4,1471.12 1209.84,1480.94 1233.09,1489.77L1305.27,1518.64C1350.98,1536.28 1382.46,1560.34 1399.7,1590.81C1416.94,1621.29 1425.57,1654.57 1425.57,1690.66C1425.57,1716.32 1420.95,1740.18 1411.73,1762.24C1402.51,1784.29 1389.88,1803.74 1373.84,1820.58C1357.8,1837.42 1338.55,1850.65 1316.1,1860.28C1306.2,1864.52 1295.91,1867.83 1285.23,1870.2L1285.23,1938.99L1200.86,1938.99L1200.86,1870.64C1169.12,1864.14 1141.37,1849.86 1117.61,1827.8C1100.77,1812.56 1087.13,1793.51 1076.71,1770.65C1066.28,1747.8 1060.67,1721.13 1059.87,1690.66L1175.35,1690.66C1177.76,1707.5 1183.57,1723.14 1192.79,1737.57C1202.02,1752.01 1218.26,1759.23 1241.51,1759.23C1259.16,1759.23 1275,1753.41 1289.03,1741.78C1303.07,1730.16 1310.08,1713.92 1310.08,1693.07C1310.08,1676.22 1305.67,1661.79 1296.85,1649.76C1288.03,1637.73 1271.99,1627.3 1248.73,1618.48L1189.79,1596.83C1151.29,1582.39 1121.02,1560.94 1098.96,1532.47C1076.91,1504 1065.88,1469.32 1065.88,1428.41C1065.88,1402.75 1070.69,1378.89 1080.32,1356.84C1089.94,1334.78 1103.17,1315.74 1120.02,1299.7C1136.06,1283.66 1154.9,1271.43 1176.56,1263.01C1184.44,1259.94 1192.55,1257.43 1200.86,1255.48L1200.86,1169.48L1285.23,1169.48L1285.23,1254.28Z" style="fill:rgb(155,230,225);fill-rule:nonzero;"/></g><g id="path26285" serif:id="path2628" transform="matrix(0.49567,0,0,-0.49567,-5182.1,4722.93)"><path d="M16216.6,5449.84C16133.2,5401.65 15997.9,5401.65 15914.5,5449.84C15831,5498.03 15831,5576.07 15914.5,5624.27C15997.9,5672.39 16133.2,5672.39 16216.6,5624.27C16300,5576.07 16300,5498.03 16216.6,5449.84" style="fill:rgb(68,174,158);fill-rule:nonzero;"/></g><g transform="matrix(0.173198,0.0796165,-0.158912,0.0950126,2815.52,1726.64)"><path d="M1285.23,1254.28C1295.69,1256.47 1305.78,1259.58 1315.5,1263.61C1336.75,1272.43 1354.99,1284.86 1370.23,1300.9C1385.47,1316.94 1397.5,1335.99 1406.32,1358.04C1415.14,1380.1 1419.55,1403.55 1419.55,1428.41L1304.07,1428.41C1303.27,1407.56 1296.65,1391.92 1284.22,1381.5C1271.79,1371.07 1257.55,1365.86 1241.51,1365.86C1222.27,1365.86 1207.43,1372.08 1197.01,1384.51C1186.58,1396.94 1181.37,1411.17 1181.37,1427.21C1181.37,1438.44 1184.17,1449.47 1189.79,1460.29C1195.4,1471.12 1209.84,1480.94 1233.09,1489.77L1305.27,1518.64C1350.98,1536.28 1382.46,1560.34 1399.7,1590.81C1416.94,1621.29 1425.57,1654.57 1425.57,1690.66C1425.57,1716.32 1420.95,1740.18 1411.73,1762.24C1402.51,1784.29 1389.88,1803.74 1373.84,1820.58C1357.8,1837.42 1338.55,1850.65 1316.1,1860.28C1306.2,1864.52 1295.91,1867.83 1285.23,1870.2L1285.23,1938.99L1200.86,1938.99L1200.86,1870.64C1169.12,1864.14 1141.37,1849.86 1117.61,1827.8C1100.77,1812.56 1087.13,1793.51 1076.71,1770.65C1066.28,1747.8 1060.67,1721.13 1059.87,1690.66L1175.35,1690.66C1177.76,1707.5 1183.57,1723.14 1192.79,1737.57C1202.02,1752.01 1218.26,1759.23 1241.51,1759.23C1259.16,1759.23 1275,1753.41 1289.03,1741.78C1303.07,1730.16 1310.08,1713.92 1310.08,1693.07C1310.08,1676.22 1305.67,1661.79 1296.85,1649.76C1288.03,1637.73 1271.99,1627.3 1248.73,1618.48L1189.79,1596.83C1151.29,1582.39 1121.02,1560.94 1098.96,1532.47C1076.91,1504 1065.88,1469.32 1065.88,1428.41C1065.88,1402.75 1070.69,1378.89 1080.32,1356.84C1089.94,1334.78 1103.17,1315.74 1120.02,1299.7C1136.06,1283.66 1154.9,1271.43 1176.56,1263.01C1184.44,1259.94 1192.55,1257.43 1200.86,1255.48L1200.86,1169.48L1285.23,1169.48L1285.23,1254.28Z" style="fill:rgb(155,230,225);fill-rule:nonzero;"/></g></g><path id="path26126" serif:id="path2612" d="M2646.47,1649.3L2611.3,1634.66L2556.15,1678.2C2560.62,1685.41 2567.55,1691.15 2571.43,1700.01C2582.85,1726.05 2582.87,1761.41 2611.65,1776.57C2616.5,1779.13 2622.01,1781.78 2627.1,1783.8C2643.42,1790.26 2693.99,1794.64 2697.99,1767.83C2700.22,1752.81 2689.04,1731.96 2682.98,1718.91C2675.01,1701.72 2667.97,1684.66 2658.79,1668.04C2655.19,1661.52 2650.45,1655.6 2646.47,1649.3Z" style="fill-opacity:0.24;fill-rule:nonzero;"/><path d="M2530.46,1458.03C2527.32,1446.1 2505.82,1466.53 2503.91,1469.6C2493.71,1485.94 2484.83,1514.63 2489.52,1534.14C2500.68,1580.59 2545.94,1596.94 2574.48,1630.73C2583.55,1641.48 2589.58,1670.57 2591.09,1683.64C2594.18,1710.41 2604.22,1736.4 2619.86,1758.93C2633.4,1778.43 2664.24,1796.48 2693.6,1784.37C2715.22,1775.44 2686.52,1710.45 2680.07,1684.67C2672.36,1653.82 2670.03,1622.99 2665.11,1591.77C2662.18,1573.19 2653.56,1556.44 2647.81,1538.75C2640.01,1514.76 2634.24,1488.57 2614.07,1471.46C2602.34,1461.51 2587.95,1456.02 2574.33,1449.34" style="fill:rgb(255,171,101);"/><path d="M2488.32,1518.8C2489.17,1501.56 2496.16,1482.02 2503.91,1469.6C2505.82,1466.53 2527.32,1446.1 2530.46,1458.03L2574.33,1449.34C2587.95,1456.02 2602.34,1461.51 2614.07,1471.46C2634.24,1488.57 2640.01,1514.76 2647.81,1538.75C2653.56,1556.44 2662.18,1573.19 2665.11,1591.77C2670.03,1622.99 2672.36,1653.82 2680.07,1684.67C2684.69,1703.14 2700.73,1741.73 2701.51,1765.42C2692.74,1777.26 2677.86,1778.76 2672.18,1774.54C2659.26,1764.93 2658.78,1756.25 2653.21,1741.18C2651.17,1735.66 2646.72,1723.28 2650.26,1717.31C2653.2,1712.38 2678.88,1710.17 2678.66,1705.29C2678.46,1700.7 2649.14,1708.19 2645.77,1715.86C2641.45,1725.71 2653.47,1751.73 2658.84,1760.06C2660.36,1762.4 2661.05,1768.93 2656.15,1767.64C2649.44,1765.88 2645.07,1760.18 2639.55,1756.09C2606.94,1731.97 2616.27,1705.1 2608.62,1669.06C2605.47,1654.23 2591.6,1645.63 2590.75,1636.74C2589.94,1628.17 2595.74,1621.62 2601.58,1616.24C2603.6,1614.38 2609.86,1610.58 2608.69,1606.92C2607,1601.64 2594.88,1615.66 2590.77,1617.04C2583.45,1619.5 2572.28,1612.11 2567.05,1608.32C2539.49,1588.33 2505.4,1554.36 2488.32,1518.8Z" style="fill:rgb(255,199,135);"/></g><g transform="matrix(2.31523,0,0,2.31523,-6535.18,-2024.54)"><g transform="matrix(0.861123,-0.219698,0.541398,0.843718,-600.341,843.144)"><ellipse cx="2857.78" cy="1956.14" rx="213.697" ry="76.153" style="fill-opacity:0.18;"/></g><path d="M3102.07,1759.7C3093.58,1757.5 3084.7,1762.24 3081.88,1770.69C3078.94,1779.51 3083.72,1789.06 3092.54,1792C3097.54,1793.67 3105.23,1793.01 3110.39,1793.01C3136.42,1793.01 3159.16,1786.72 3179.74,1770.06C3186.54,1764.55 3193.95,1759.7 3200.51,1753.9C3221.6,1735.24 3244.45,1701.67 3252.71,1667.97C3258.84,1642.93 3256.99,1617.9 3243.22,1597.58C3226.41,1572.77 3195.01,1574.85 3171.54,1586.68C3143.2,1600.95 3124.76,1620.95 3111.22,1649.5C3106.05,1660.4 3100.23,1672.03 3100.7,1684.48C3101.04,1693.77 3108.87,1701.04 3118.16,1700.69C3127.45,1700.35 3134.72,1692.52 3134.37,1683.23C3134.11,1676.2 3138.75,1670.1 3141.67,1663.94C3151.81,1642.56 3165.48,1627.46 3186.7,1616.77C3191.47,1614.37 3196.9,1612.4 3202.27,1611.82C3207.16,1611.29 3212.2,1611.89 3215.32,1616.48C3223.8,1629 3223.75,1644.54 3219.97,1659.95C3213.37,1686.91 3195.05,1713.74 3178.18,1728.66C3171.99,1734.14 3164.96,1738.66 3158.53,1743.87C3144.29,1755.39 3128.41,1759.31 3110.39,1759.31C3108.24,1759.31 3103.14,1759.63 3102.07,1759.7Z" style="fill:rgb(238,217,126);"/><path d="M3215.19,1616.3C3217.7,1616.93 3219.89,1617.89 3221.44,1619.13C3232.96,1628.36 3233.87,1651.02 3232.93,1664.34C3229.79,1708.66 3187.93,1742.52 3152.84,1763.97C3145.22,1768.63 3136.5,1772.8 3127.76,1774.77C3121.37,1776.2 3115.01,1776.87 3108.44,1776.57C3098.42,1776.11 3090.73,1771.41 3085.53,1764.53C3089.64,1760.13 3095.95,1758.12 3102.07,1759.7C3103.14,1759.63 3108.24,1759.31 3110.39,1759.31C3128.41,1759.31 3144.29,1755.39 3158.53,1743.87C3164.96,1738.66 3171.99,1734.14 3178.18,1728.66C3195.05,1713.74 3213.37,1686.91 3219.97,1659.95C3223.75,1644.54 3223.8,1629 3215.32,1616.48L3215.19,1616.3ZM3144.51,1658.3L3101.43,1688.83C3103.62,1695.93 3110.38,1700.98 3118.16,1700.69C3127.45,1700.35 3134.72,1692.52 3134.37,1683.23C3134.11,1676.2 3138.75,1670.1 3141.67,1663.94C3142.59,1662.01 3143.53,1660.13 3144.51,1658.3Z" style="fill:rgb(251,245,220);"/><g transform="matrix(1.03293,0,0,1.14946,-69.0372,-253.523)"><path d="M2929.83,1539.6C3035.58,1539.6 3121.43,1572.67 3121.43,1613.4C3121.43,1654.13 3101.86,1841.32 2929.84,1840.92C2730.35,1840.47 2738.24,1654.13 2738.24,1613.4C2738.24,1572.67 2824.09,1539.6 2929.83,1539.6Z" style="fill:rgb(242,225,154);"/></g><path d="M3154.74,1614.9C3151.05,1680.16 3121.06,1862.96 2957.28,1862.55C2908.5,1862.42 2871.73,1850.33 2843.99,1831.3C2868.44,1837.88 2900.95,1838.25 2923.03,1826.85C2944.66,1815.69 2962.47,1790.67 2970.98,1768.4C2977.83,1750.45 2980.86,1735 2994.31,1720.22C3003.81,1709.77 3016.71,1703.83 3028.74,1696.94C3064.7,1676.34 3103.91,1664.15 3134.77,1635.2C3140.53,1629.8 3148.28,1622.75 3154.74,1614.9Z" style="fill:rgb(238,217,126);"/><g transform="matrix(1.03293,0,0,1.14946,-69.0372,-253.523)"><ellipse cx="2929.83" cy="1613.4" rx="191.595" ry="73.799" style="fill:rgb(251,245,220);"/></g><g transform="matrix(1,0,0,1,26.9725,-16.5342)"><ellipse cx="2929.83" cy="1613.4" rx="191.595" ry="73.799" style="fill:rgb(230,198,65);"/></g><path d="M2777.46,1622.87C2802.95,1593.63 2874.71,1572.54 2959.14,1572.54C3041.13,1572.54 3111.15,1592.42 3138.49,1620.34C3112.99,1649.58 3041.24,1670.66 2956.81,1670.66C2874.82,1670.66 2804.8,1650.78 2777.46,1622.87Z" style="fill:rgb(183,152,24);"/><path d="M2780.79,1619.35C2808.79,1591.95 2878.13,1572.54 2959.14,1572.54C2965.16,1572.54 2971.12,1572.65 2976.99,1572.86C2963.75,1576.01 2950.72,1580.02 2938.67,1584.41C2929,1587.93 2918.73,1591.8 2910.4,1597.94C2908.39,1599.42 2904.31,1602.96 2905.86,1606.13C2909.89,1614.36 2929.71,1615.41 2937.31,1616.58C2969.54,1621.52 3001.33,1619.51 3033.77,1620.55C3043.6,1620.87 3054.77,1621.29 3063.77,1625.52C3066.99,1627.04 3072.61,1628.87 3071.21,1633.59C3068.81,1641.7 3052.81,1644.53 3046.08,1646.44C3016.72,1654.75 2988.22,1649.72 2958.43,1651.89C2950.35,1652.48 2942.31,1654.76 2934.46,1656.63C2933.24,1656.92 2926.88,1657.82 2928.4,1660.7C2931.24,1666.1 2954.11,1666.45 2959.49,1666.67C2982.62,1667.6 3005.53,1666.24 3028.5,1665.31C3006.36,1668.76 2982.15,1670.66 2956.81,1670.66C2877.47,1670.66 2809.33,1652.05 2780.25,1625.55C2780.27,1623.39 2780.45,1621.33 2780.79,1619.35Z" style="fill:rgb(205,170,27);"/></g></g></g></g></g></svg>